<svg width="19" height="20" viewBox="0 0 19 20" fill="none" xmlns="http://www.w3.org/2000/svg">
<g clip-path="url(#clip0_171_648)">
<path d="M4.03479 8.89823C3.58619 8.45714 2.98074 8.21232 2.35163 8.21763C1.72252 8.22294 1.12129 8.47794 0.680198 8.92654C0.239107 9.37514 -0.00571324 9.98059 -0.000403686 10.6097C0.00490587 11.2388 0.25991 11.84 0.70851 12.2811L7.73802 19.199C8.18163 19.6353 8.77893 19.8798 9.40116 19.8798C10.0234 19.8798 10.6207 19.6353 11.0643 19.199L17.9579 12.4138C18.3882 11.9693 18.6279 11.3742 18.6256 10.7555C18.6234 10.1368 18.3794 9.54344 17.9459 9.10206C17.5123 8.66068 16.9234 8.4062 16.3048 8.3929C15.6863 8.37961 15.087 8.60855 14.6349 9.03089L11.7228 11.8929L11.6758 2.3201C11.6597 -0.799091 6.91616 -0.753791 6.93072 2.35893L6.97763 11.7974L4.03479 8.89823Z" fill="#0D508F"/>
</g>
<defs>
<clipPath id="clip0_171_648">
<rect width="18.6699" height="19.88" fill="white"/>
</clipPath>
</defs>
</svg>
