<svg width="90" height="93" viewBox="0 0 90 93" fill="none" xmlns="http://www.w3.org/2000/svg">
<g filter="url(#filter0_d_196_102)">
<path d="M81.4571 58.4751C77.3981 66.3998 70.7569 72.7024 62.631 76.3416C54.505 79.9807 45.3806 80.7386 36.7656 78.4899C28.1506 76.2413 20.5606 71.1206 15.2499 63.9742C9.93911 56.8278 7.22549 48.0834 7.55741 39.1859C7.88933 30.2885 11.2469 21.7705 17.0754 15.0397C22.9038 8.30885 30.8542 3.76796 39.6128 2.1674C48.3714 0.566851 57.414 2.00243 65.2462 6.23692C73.0785 10.4714 79.2316 17.2514 82.6889 25.4564L46.6441 40.6441L81.4571 58.4751Z" fill="#7485BD"/>
</g>
<defs>
<filter id="filter0_d_196_102" x="0.530273" y="0.530174" width="89.1587" height="92.2278" filterUnits="userSpaceOnUse" color-interpolation-filters="sRGB">
<feFlood flood-opacity="0" result="BackgroundImageFix"/>
<feColorMatrix in="SourceAlpha" type="matrix" values="0 0 0 0 0 0 0 0 0 0 0 0 0 0 0 0 0 0 127 0" result="hardAlpha"/>
<feOffset dy="6"/>
<feGaussianBlur stdDeviation="3.5"/>
<feColorMatrix type="matrix" values="0 0 0 0 0 0 0 0 0 0 0 0 0 0 0 0 0 0 0.25 0"/>
<feBlend mode="normal" in2="BackgroundImageFix" result="effect1_dropShadow_196_102"/>
<feBlend mode="normal" in="SourceGraphic" in2="effect1_dropShadow_196_102" result="shape"/>
</filter>
</defs>
</svg>
