<svg width="639" height="593" viewBox="0 0 639 593" fill="none" xmlns="http://www.w3.org/2000/svg">
<path fill-rule="evenodd" clip-rule="evenodd" d="M639 27.3391V563C639 579.569 625.568 593 609 593H14.4116C13.0327 590.084 11.7209 587.115 10.4785 584.092C-18.8048 512.852 21.4214 444.786 62.7052 374.93C83.6712 339.453 104.91 303.515 117.456 266.465C127.065 238.088 131.298 206.994 135.477 176.299C143.718 115.76 151.748 56.773 200.397 23.2336C252.182 -12.4678 314.68 1.91824 378.182 16.5352C404.984 22.7045 431.965 28.915 458.394 31.4181C491.516 34.555 526.812 32.3043 561.861 30.0691C588.048 28.3993 614.097 26.7381 639 27.3391Z" fill="#0D508F"/>
</svg>
