<svg width="300" height="634" viewBox="0 0 300 634" fill="none" xmlns="http://www.w3.org/2000/svg">
<g filter="url(#filter0_d_171_313)">
<path d="M150.118 380.59V423.576L149.511 432.195L165.254 657.315H216.893L216.9 385.161L150.118 380.59Z" fill="white"/>
</g>
<g filter="url(#filter1_d_171_313)">
<path d="M150.118 423.576V380.59V380.506H85.0171V657.315H133.775L149.511 432.195L150.118 423.576Z" fill="white"/>
</g>
<path d="M149.511 293.828L165.407 160.745H133.621L149.511 293.828Z" fill="white"/>
<path d="M174.11 106.028C174.11 106.028 181.786 85.7 175.394 76.0211C173.949 73.8299 169.448 73.4949 166.399 73.5438C165.559 73.5298 164.747 73.2441 164.084 72.7295C163.421 72.2149 162.943 71.4991 162.721 70.6896C161.821 67.8215 159.93 63.7811 156.189 62.6227C146.852 59.7406 134.047 60.9339 128.869 68.2053C126.273 71.8341 127.111 78.7775 127.836 82.6016C127.991 83.3324 127.881 84.0946 127.526 84.7517C127.17 85.4089 126.593 85.9181 125.896 86.1885L118.499 88.7635C117.515 89.1399 116.671 89.8112 116.083 90.6856C115.494 91.5599 115.19 92.5947 115.213 93.6483C115.208 94.3493 115.341 95.0443 115.606 95.6934C115.871 96.3425 116.261 96.9329 116.755 97.4305L125.457 106.028H174.11Z" fill="#2C3959"/>
<path d="M149.511 186.271C145.832 186.271 142.303 184.81 139.701 182.208C137.1 179.607 135.638 176.078 135.638 172.399V146.998H163.384V172.399C163.384 176.078 161.922 179.607 159.321 182.208C156.719 184.81 153.19 186.271 149.511 186.271Z" fill="#D67E76"/>
<path d="M126.894 129.894C126.894 142.388 137.021 152.517 149.514 152.517C162.007 152.517 172.134 142.388 172.134 129.894V101.345C172.134 88.8507 162.007 78.7217 149.514 78.7217C137.021 78.7217 126.894 88.8507 126.894 101.345V129.894Z" fill="#E3867E"/>
<path d="M126.454 124.353L128.715 124.813V104.751L122.972 103.236C121.973 102.966 120.926 102.93 119.911 103.13C118.896 103.33 117.941 103.761 117.119 104.39C116.298 105.02 115.632 105.829 115.175 106.757C114.717 107.685 114.479 108.706 114.479 109.74C114.487 113.183 115.682 116.517 117.864 119.18C120.046 121.842 123.08 123.67 126.454 124.353Z" fill="#E3867E"/>
<path d="M172.574 124.353L170.313 124.813V104.751L176.063 103.236C177.062 102.966 178.109 102.93 179.124 103.13C180.139 103.33 181.095 103.761 181.916 104.39C182.737 105.02 183.403 105.829 183.861 106.757C184.318 107.685 184.556 108.706 184.556 109.74C184.548 113.184 183.352 116.519 181.168 119.181C178.985 121.844 175.949 123.671 172.574 124.353Z" fill="#E3867E"/>
<path d="M155.833 120.515H148.394V118.589H153.125L149.72 108.798L151.541 108.17L155.833 120.515Z" fill="#D67E76"/>
<path d="M158.617 129.426C158.617 141.603 140.348 141.603 140.348 129.426H158.617Z" fill="white"/>
<path d="M289.503 42.4414C289.594 88.9589 248.533 172.615 248.533 172.615L224.214 135.058C224.214 135.058 266.042 83.4181 272.874 39.4547C273.509 35.2747 289.496 38.2126 289.503 42.4414Z" fill="#E3867E"/>
<path d="M223.774 133.774C223.774 133.774 195.603 158.533 172.986 162.797L168.387 163.669L149.546 293.828V390.129H222.818L218.415 224.743C218.579 218.871 220.419 213.169 223.718 208.309L251.213 170.194L223.774 133.774Z" fill="#706FC9"/>
<path d="M9.5187 42.4414C9.42799 88.9589 50.4884 172.615 50.4884 172.615L74.8218 135.058C74.8218 135.058 32.9938 83.4181 26.162 39.4547C25.513 35.2747 9.52568 38.2126 9.5187 42.4414Z" fill="#E3867E"/>
<path d="M75.2475 133.774C75.2475 133.774 103.412 158.533 126.036 162.797C130.648 163.669 131.109 169.412 131.109 169.412L149.546 293.828V390.129H76.1198L80.6208 224.743C80.4538 218.872 78.6139 213.17 75.3173 208.309L47.8228 170.194L75.2475 133.774Z" fill="#706FC9"/>
<path d="M163.726 159.077L173.649 162.489L175.784 206.76H162.553L175.784 221.268L149.511 293.828L163.726 159.077Z" fill="#FCD94E"/>
<path d="M135.303 158.114L125.373 161.526L123.244 206.76H136.475L123.244 221.268L149.511 293.828L135.303 158.114Z" fill="#FCD94E"/>
<path d="M26.3016 33.2789C28.1369 29.378 26.9366 21.5413 27.0692 16.0913C27.0692 15.6168 26.4272 15.3586 26.1272 15.3446C23.4126 15.7494 22.8404 21.988 23.4196 27.0752C23.5452 28.1638 22.6799 21.653 22.6799 21.653L19.6373 3.88621C19.5942 3.62644 19.5002 3.37776 19.3605 3.15451C19.2209 2.93126 19.0385 2.73784 18.8238 2.5854C18.6091 2.43296 18.3663 2.32453 18.1095 2.26633C17.8527 2.20813 17.5869 2.20132 17.3275 2.2463C17.0681 2.29025 16.82 2.38487 16.5972 2.52475C16.3744 2.66462 16.1814 2.84701 16.0291 3.06151C15.8768 3.276 15.7682 3.5184 15.7097 3.77485C15.6511 4.0313 15.6436 4.29678 15.6876 4.55612L17.8858 17.4032C17.9201 17.6122 17.8705 17.8264 17.7476 17.9989C17.6247 18.1715 17.4386 18.2885 17.2298 18.3244C17.0207 18.3609 16.8057 18.3131 16.6317 18.1915C16.4578 18.0699 16.3391 17.8843 16.3017 17.6754L13.5662 1.6671C13.4757 1.14416 13.1821 0.678247 12.7493 0.371018C12.3166 0.0637884 11.7799 -0.0598057 11.2564 0.0272024C10.732 0.117622 10.2649 0.412295 9.95748 0.846603C9.65006 1.28091 9.52743 1.8194 9.61646 2.344L12.352 18.3453C12.37 18.4493 12.3673 18.5559 12.3441 18.6589C12.3208 18.7619 12.2775 18.8592 12.2166 18.9455C12.1556 19.0317 12.0783 19.105 11.989 19.1613C11.8996 19.2176 11.8001 19.2557 11.696 19.2734C11.5924 19.2914 11.4862 19.2886 11.3837 19.2653C11.2811 19.242 11.1842 19.1986 11.0986 19.1376C11.0129 19.0766 10.9402 18.9992 10.8846 18.9099C10.8291 18.8206 10.7918 18.7212 10.7749 18.6174L8.58367 5.77733C8.53895 5.5179 8.44352 5.26983 8.30284 5.04732C8.16216 4.8248 7.97899 4.63221 7.76381 4.48054C7.54863 4.32888 7.30566 4.22113 7.0488 4.16346C6.79194 4.10578 6.52623 4.0993 6.26687 4.14441C6.00751 4.18836 5.75935 4.28297 5.53656 4.42284C5.31377 4.56272 5.12072 4.74512 4.96844 4.95961C4.81615 5.17411 4.70761 5.41651 4.64902 5.67296C4.59043 5.92941 4.58294 6.19488 4.62696 6.45423L6.95772 20.0899C6.97574 20.1939 6.97306 20.3005 6.94983 20.4034C6.9266 20.5064 6.88328 20.6038 6.82234 20.69C6.76141 20.7763 6.68406 20.8496 6.59473 20.9059C6.50539 20.9622 6.40584 21.0002 6.30176 21.018C6.09191 21.0525 5.8769 21.003 5.70323 20.8803C5.52955 20.7575 5.41116 20.5714 5.37364 20.362L3.97798 12.2602C3.93403 12.0008 3.83941 11.7527 3.69954 11.5299C3.55966 11.3071 3.37727 11.114 3.16277 10.9618C2.94828 10.8095 2.70588 10.7009 2.44943 10.6423C2.19298 10.5838 1.9275 10.5763 1.66815 10.6203C1.40879 10.6642 1.16064 10.7589 0.937849 10.8987C0.715061 11.0386 0.522007 11.221 0.369721 11.4355C0.217436 11.65 0.108902 11.8924 0.0503113 12.1488C-0.00827948 12.4053 -0.0157785 12.6708 0.0282485 12.9301L2.81958 29.2175C2.81958 29.2175 5.65277 45.805 11.2982 48.7568C16.0295 51.2411 27.0902 43.9976 27.0902 43.9976C27.0902 43.9976 25.7364 34.4792 26.3016 33.2789Z" fill="#E3867E"/>
<path d="M272.72 33.2789C270.885 29.378 272.085 21.5413 271.953 16.0913C271.953 15.6168 272.595 15.3586 272.888 15.3446C275.602 15.7494 276.174 21.988 275.595 27.0752C275.47 28.1638 276.335 21.653 276.335 21.653L279.377 3.88621C279.421 3.62644 279.515 3.37776 279.654 3.15451C279.794 2.93126 279.976 2.73784 280.191 2.5854C280.406 2.43296 280.648 2.32453 280.905 2.26633C281.162 2.20813 281.428 2.20132 281.687 2.2463C282.21 2.33679 282.676 2.63043 282.983 3.06317C283.291 3.49591 283.414 4.0326 283.327 4.55612L281.136 17.4032C281.118 17.5068 281.121 17.613 281.144 17.7155C281.167 17.8181 281.211 17.915 281.272 18.0006C281.333 18.0863 281.41 18.159 281.5 18.2146C281.589 18.2701 281.688 18.3075 281.792 18.3244C282.001 18.3609 282.216 18.3131 282.39 18.1915C282.564 18.0699 282.683 17.8843 282.72 17.6754L285.456 1.6671C285.546 1.14416 285.84 0.678247 286.272 0.371018C286.705 0.0637884 287.242 -0.0598057 287.765 0.0272024C288.289 0.119331 288.755 0.414402 289.062 0.848254C289.369 1.28211 289.492 1.81965 289.405 2.344L286.67 18.3453C286.652 18.4493 286.654 18.5559 286.678 18.6589C286.701 18.7619 286.744 18.8592 286.805 18.9455C286.866 19.0317 286.944 19.105 287.033 19.1613C287.122 19.2176 287.222 19.2557 287.326 19.2734C287.429 19.2914 287.536 19.2886 287.638 19.2653C287.741 19.242 287.838 19.1986 287.923 19.1376C288.009 19.0766 288.082 18.9992 288.137 18.9099C288.193 18.8206 288.23 18.7212 288.247 18.6174L290.445 5.77733C290.489 5.51797 290.584 5.26981 290.724 5.04702C290.863 4.82423 291.046 4.63119 291.26 4.4789C291.475 4.32662 291.717 4.21807 291.974 4.15948C292.23 4.10089 292.496 4.0934 292.755 4.13743C293.014 4.18138 293.262 4.27599 293.485 4.41587C293.708 4.55574 293.901 4.73814 294.053 4.95264C294.206 5.16713 294.314 5.40952 294.373 5.66597C294.431 5.92242 294.439 6.18791 294.395 6.44725L292.064 20.0829C292.046 20.1869 292.049 20.2935 292.072 20.3965C292.095 20.4995 292.139 20.5969 292.199 20.6831C292.26 20.7693 292.338 20.8426 292.427 20.8989C292.516 20.9552 292.616 20.9933 292.72 21.011C292.929 21.0454 293.143 20.9957 293.316 20.8728C293.488 20.7499 293.605 20.5638 293.641 20.355L295.037 12.2532C295.081 11.9938 295.175 11.7457 295.315 11.5229C295.455 11.3001 295.638 11.1071 295.852 10.9548C296.067 10.8025 296.309 10.694 296.565 10.6354C296.822 10.5768 297.087 10.5693 297.347 10.6133C297.606 10.6573 297.854 10.7519 298.077 10.8917C298.3 11.0316 298.493 11.214 298.645 11.4285C298.797 11.643 298.906 11.8854 298.965 12.1418C299.023 12.3983 299.031 12.6638 298.987 12.9231L296.195 29.2105C296.195 29.2105 293.362 45.798 287.717 48.7498C282.985 51.2341 271.925 43.9906 271.925 43.9906C271.925 43.9906 273.285 34.4792 272.72 33.2789Z" fill="#E3867E"/>
<path d="M150.09 292.67H148.932V390.136H150.09V292.67Z" fill="#6564B5"/>
<path d="M147.096 306.787C147.096 307.265 147.238 307.731 147.503 308.128C147.768 308.526 148.146 308.835 148.587 309.018C149.028 309.201 149.513 309.248 149.982 309.155C150.45 309.062 150.88 308.832 151.218 308.494C151.556 308.157 151.786 307.726 151.879 307.258C151.972 306.79 151.924 306.304 151.741 305.863C151.559 305.422 151.249 305.045 150.852 304.779C150.455 304.514 149.988 304.373 149.511 304.373C149.194 304.373 148.88 304.435 148.587 304.556C148.294 304.678 148.028 304.856 147.803 305.08C147.579 305.304 147.401 305.57 147.28 305.863C147.159 306.156 147.096 306.47 147.096 306.787Z" fill="#FCD94E"/>
<path d="M147.096 329.99C147.096 330.467 147.238 330.934 147.503 331.331C147.768 331.728 148.146 332.038 148.587 332.221C149.028 332.403 149.513 332.451 149.982 332.358C150.45 332.265 150.88 332.035 151.218 331.697C151.556 331.36 151.786 330.929 151.879 330.461C151.972 329.993 151.924 329.507 151.741 329.066C151.559 328.625 151.249 328.248 150.852 327.982C150.455 327.717 149.988 327.575 149.511 327.575C148.87 327.575 148.256 327.83 147.803 328.283C147.351 328.735 147.096 329.35 147.096 329.99Z" fill="#FCD94E"/>
<path d="M149.511 355.607C150.844 355.607 151.925 354.526 151.925 353.193C151.925 351.859 150.844 350.778 149.511 350.778C148.177 350.778 147.096 351.859 147.096 353.193C147.096 354.526 148.177 355.607 149.511 355.607Z" fill="#FCD94E"/>
<path d="M149.511 378.803C150.844 378.803 151.925 377.722 151.925 376.389C151.925 375.055 150.844 373.974 149.511 373.974C148.177 373.974 147.096 375.055 147.096 376.389C147.096 377.722 148.177 378.803 149.511 378.803Z" fill="#FCD94E"/>
<defs>
<filter id="filter0_d_171_313" x="143.511" y="380.59" width="75.3896" height="284.725" filterUnits="userSpaceOnUse" color-interpolation-filters="sRGB">
<feFlood flood-opacity="0" result="BackgroundImageFix"/>
<feColorMatrix in="SourceAlpha" type="matrix" values="0 0 0 0 0 0 0 0 0 0 0 0 0 0 0 0 0 0 127 0" result="hardAlpha"/>
<feOffset dx="-2" dy="4"/>
<feGaussianBlur stdDeviation="2"/>
<feComposite in2="hardAlpha" operator="out"/>
<feColorMatrix type="matrix" values="0 0 0 0 0 0 0 0 0 0 0 0 0 0 0 0 0 0 0.25 0"/>
<feBlend mode="normal" in2="BackgroundImageFix" result="effect1_dropShadow_171_313"/>
<feBlend mode="normal" in="SourceGraphic" in2="effect1_dropShadow_171_313" result="shape"/>
</filter>
<filter id="filter1_d_171_313" x="79.0171" y="380.506" width="73.1006" height="284.809" filterUnits="userSpaceOnUse" color-interpolation-filters="sRGB">
<feFlood flood-opacity="0" result="BackgroundImageFix"/>
<feColorMatrix in="SourceAlpha" type="matrix" values="0 0 0 0 0 0 0 0 0 0 0 0 0 0 0 0 0 0 127 0" result="hardAlpha"/>
<feOffset dx="-2" dy="4"/>
<feGaussianBlur stdDeviation="2"/>
<feComposite in2="hardAlpha" operator="out"/>
<feColorMatrix type="matrix" values="0 0 0 0 0 0 0 0 0 0 0 0 0 0 0 0 0 0 0.25 0"/>
<feBlend mode="normal" in2="BackgroundImageFix" result="effect1_dropShadow_171_313"/>
<feBlend mode="normal" in="SourceGraphic" in2="effect1_dropShadow_171_313" result="shape"/>
</filter>
</defs>
</svg>
