<svg width="300" height="658" viewBox="0 0 300 658" fill="none" xmlns="http://www.w3.org/2000/svg">
<path d="M151.104 380.591V423.577L150.496 432.195L166.24 657.316H217.879L217.886 385.161L151.104 380.591Z" fill="white"/>
<path d="M151.104 423.577V380.591V380.507H86.0028V657.316H134.76L150.496 432.195L151.104 423.577Z" fill="white"/>
<path d="M150.496 293.829L166.393 160.746H134.607L150.496 293.829Z" fill="white"/>
<path d="M175.095 106.029C175.095 106.029 182.771 85.7008 176.379 76.0218C174.935 73.8306 170.434 73.4957 167.384 73.5445C166.545 73.5306 165.733 73.2449 165.07 72.7303C164.407 72.2156 163.928 71.4999 163.706 70.6904C162.806 67.8223 160.915 63.7819 157.175 62.6235C147.838 59.7414 135.032 60.9347 129.855 68.2061C127.259 71.8348 128.096 78.7783 128.822 82.6024C128.977 83.3332 128.867 84.0954 128.511 84.7525C128.156 85.4096 127.578 85.9189 126.882 86.1892L119.485 88.7642C118.5 89.1407 117.656 89.812 117.068 90.6864C116.48 91.5607 116.176 92.5954 116.198 93.6491C116.193 94.35 116.327 95.0451 116.591 95.6942C116.856 96.3433 117.247 96.9336 117.74 97.4313L126.442 106.029H175.095Z" fill="#2C3959"/>
<path d="M150.496 186.272C146.817 186.272 143.289 184.811 140.687 182.209C138.085 179.607 136.624 176.079 136.624 172.399V146.998H164.369V172.399C164.369 176.079 162.908 179.607 160.306 182.209C157.704 184.811 154.176 186.272 150.496 186.272Z" fill="#D67E76"/>
<path d="M127.88 129.894C127.88 142.389 138.007 152.518 150.5 152.518C162.993 152.518 173.12 142.389 173.12 129.894V101.346C173.12 88.8514 162.993 78.7224 150.5 78.7224C138.007 78.7224 127.88 88.8514 127.88 101.346V129.894Z" fill="#E3867E"/>
<path d="M127.44 124.354L129.701 124.814V104.752L123.958 103.237C122.959 102.967 121.912 102.931 120.897 103.131C119.882 103.331 118.926 103.762 118.105 104.391C117.284 105.02 116.618 105.83 116.16 106.758C115.703 107.686 115.465 108.706 115.465 109.741C115.472 113.183 116.668 116.518 118.85 119.18C121.032 121.843 124.066 123.67 127.44 124.354Z" fill="#E3867E"/>
<path d="M173.56 124.354L171.299 124.814V104.752L177.049 103.237C178.048 102.967 179.095 102.931 180.11 103.131C181.125 103.331 182.081 103.762 182.902 104.391C183.723 105.02 184.389 105.83 184.847 106.758C185.304 107.686 185.542 108.706 185.542 109.741C185.534 113.184 184.338 116.52 182.154 119.182C179.971 121.845 176.935 123.672 173.56 124.354Z" fill="#E3867E"/>
<path d="M156.819 120.516H149.38V118.59H154.111L150.706 108.799L152.527 108.171L156.819 120.516Z" fill="#D67E76"/>
<path d="M159.603 129.427C159.603 141.604 141.334 141.604 141.334 129.427H159.603Z" fill="white"/>
<path d="M290.489 42.4422C290.579 88.9596 249.519 172.616 249.519 172.616L225.199 135.058C225.199 135.058 267.028 83.4188 273.859 39.4554C274.494 35.2754 290.482 38.2133 290.489 42.4422Z" fill="#E3867E"/>
<path d="M224.76 133.774C224.76 133.774 196.588 158.533 173.972 162.797L169.373 163.669L150.531 293.829V390.13H223.804L219.4 224.744C219.564 218.872 221.405 213.17 224.704 208.31L252.198 170.194L224.76 133.774Z" fill="#706FC9"/>
<path d="M10.5044 42.4422C10.4137 88.9596 51.4741 172.616 51.4741 172.616L75.8075 135.058C75.8075 135.058 33.9795 83.4188 27.1477 39.4554C26.4987 35.2754 10.5114 38.2133 10.5044 42.4422Z" fill="#E3867E"/>
<path d="M76.2333 133.774C76.2333 133.774 104.398 158.533 127.021 162.797C131.634 163.669 132.095 169.413 132.095 169.413L150.531 293.829V390.13H77.1056L81.6066 224.744C81.4395 218.873 79.5996 213.171 76.3031 208.31L48.8085 170.194L76.2333 133.774Z" fill="#706FC9"/>
<path d="M164.711 159.078L174.634 162.49L176.77 206.761H163.539L176.77 221.269L150.496 293.829L164.711 159.078Z" fill="#FCD94E"/>
<path d="M136.289 158.115L126.358 161.527L124.23 206.761H137.461L124.23 221.269L150.496 293.829L136.289 158.115Z" fill="#FCD94E"/>
<path d="M27.2873 33.2796C29.1226 29.3787 27.9224 21.5421 28.0549 16.092C28.0549 15.6175 27.4129 15.3593 27.1129 15.3453C24.3983 15.7501 23.8261 21.9887 24.4053 27.0759C24.5309 28.1645 23.6656 21.6537 23.6656 21.6537L20.623 3.88694C20.58 3.62718 20.4859 3.37849 20.3463 3.15524C20.2066 2.93199 20.0242 2.73857 19.8095 2.58613C19.5948 2.4337 19.3521 2.32526 19.0953 2.26706C18.8384 2.20886 18.5727 2.20205 18.3132 2.24704C18.0539 2.29099 17.8057 2.38561 17.5829 2.52548C17.3601 2.66536 17.1671 2.84774 17.0148 3.06224C16.8625 3.27674 16.754 3.51914 16.6954 3.77559C16.6368 4.03204 16.6293 4.29751 16.6733 4.55686L18.8715 17.4039C18.9059 17.613 18.8562 17.8271 18.7333 17.9997C18.6104 18.1722 18.4243 18.2892 18.2155 18.3251C18.0064 18.3616 17.7914 18.3139 17.6175 18.1922C17.4435 18.0706 17.3248 17.885 17.2874 17.6761L14.5519 1.66783C14.4614 1.1449 14.1678 0.67898 13.735 0.37175C13.3023 0.0645208 12.7656 -0.0590733 12.2421 0.0279348C11.7177 0.118354 11.2506 0.413027 10.9432 0.847336C10.6358 1.28164 10.5131 1.82013 10.6022 2.34473L13.3377 18.346C13.3557 18.45 13.353 18.5566 13.3298 18.6596C13.3066 18.7626 13.2632 18.86 13.2023 18.9462C13.1414 19.0324 13.064 19.1058 12.9747 19.162C12.8854 19.2183 12.7858 19.2564 12.6817 19.2741C12.5781 19.2921 12.472 19.2894 12.3694 19.266C12.2669 19.2427 12.17 19.1993 12.0843 19.1383C11.9986 19.0773 11.9259 18.9999 11.8704 18.9107C11.8148 18.8214 11.7775 18.722 11.7606 18.6182L9.56939 5.77806C9.52466 5.51863 9.42923 5.27057 9.28855 5.04805C9.14787 4.82554 8.96471 4.63294 8.74953 4.48128C8.53435 4.32961 8.29138 4.22187 8.03452 4.16419C7.77766 4.10651 7.51195 4.10003 7.25258 4.14514C6.99322 4.18909 6.74506 4.2837 6.52228 4.42357C6.29949 4.56345 6.10644 4.74585 5.95415 4.96034C5.80187 5.17484 5.69333 5.41724 5.63474 5.67369C5.57615 5.93014 5.56865 6.19561 5.61268 6.45496L7.94344 20.0906C7.96146 20.1946 7.95878 20.3012 7.93555 20.4042C7.91232 20.5072 7.869 20.6046 7.80806 20.6908C7.74713 20.777 7.66978 20.8503 7.58044 20.9066C7.49111 20.9629 7.39156 21.001 7.28748 21.0187C7.07762 21.0532 6.86262 21.0037 6.68894 20.881C6.51527 20.7582 6.39688 20.5721 6.35936 20.3628L4.9637 12.2609C4.91975 12.0016 4.82513 11.7534 4.68526 11.5306C4.54538 11.3078 4.36299 11.1148 4.14849 10.9625C3.934 10.8102 3.6916 10.7017 3.43515 10.6431C3.1787 10.5845 2.91322 10.577 2.65387 10.621C2.39451 10.665 2.14635 10.7596 1.92357 10.8995C1.70078 11.0393 1.50772 11.2217 1.35544 11.4362C1.20315 11.6507 1.09462 11.8931 1.03603 12.1496C0.977438 12.406 0.969939 12.6715 1.01397 12.9308L3.80529 29.2182C3.80529 29.2182 6.63849 45.8057 12.284 48.7575C17.0153 51.2418 28.0759 43.9983 28.0759 43.9983C28.0759 43.9983 26.7221 34.4799 27.2873 33.2796Z" fill="#E3867E"/>
<path d="M273.706 33.2796C271.87 29.3787 273.071 21.5421 272.938 16.092C272.938 15.6175 273.58 15.3593 273.873 15.3453C276.588 15.7501 277.16 21.9887 276.581 27.0759C276.455 28.1645 277.32 21.6537 277.32 21.6537L280.363 3.88694C280.406 3.62718 280.5 3.37849 280.64 3.15524C280.779 2.93199 280.962 2.73857 281.177 2.58613C281.391 2.4337 281.634 2.32526 281.891 2.26706C282.148 2.20886 282.413 2.20205 282.673 2.24704C283.196 2.33752 283.662 2.63117 283.969 3.0639C284.276 3.49664 284.4 4.03333 284.313 4.55686L282.122 17.4039C282.104 17.5076 282.106 17.6137 282.13 17.7162C282.153 17.8188 282.196 17.9157 282.257 18.0014C282.318 18.087 282.396 18.1597 282.485 18.2153C282.574 18.2709 282.674 18.3082 282.777 18.3251C282.987 18.3616 283.202 18.3139 283.376 18.1922C283.549 18.0706 283.668 17.885 283.706 17.6761L286.441 1.66783C286.532 1.1449 286.825 0.67898 287.258 0.37175C287.691 0.0645208 288.227 -0.0590733 288.751 0.0279348C289.274 0.120063 289.74 0.415134 290.047 0.848986C290.355 1.28284 290.478 1.82038 290.391 2.34473L287.655 18.346C287.637 18.45 287.64 18.5566 287.663 18.6596C287.686 18.7626 287.73 18.86 287.791 18.9462C287.852 19.0324 287.929 19.1058 288.018 19.162C288.108 19.2183 288.207 19.2564 288.311 19.2741C288.415 19.2921 288.521 19.2894 288.624 19.266C288.726 19.2427 288.823 19.1993 288.909 19.1383C288.994 19.0773 289.067 18.9999 289.123 18.9107C289.178 18.8214 289.216 18.722 289.232 18.6182L291.431 5.77806C291.475 5.5187 291.569 5.27054 291.709 5.04775C291.849 4.82497 292.031 4.63192 292.246 4.47964C292.46 4.32735 292.703 4.21881 292.959 4.16022C293.216 4.10162 293.481 4.09414 293.74 4.13816C294 4.18212 294.248 4.27673 294.471 4.4166C294.694 4.55648 294.887 4.73887 295.039 4.95337C295.191 5.16786 295.3 5.41025 295.358 5.6667C295.417 5.92315 295.424 6.18864 295.38 6.44799L293.05 20.0836C293.032 20.1876 293.034 20.2942 293.057 20.3972C293.081 20.5002 293.124 20.5976 293.185 20.6838C293.246 20.77 293.323 20.8434 293.413 20.8996C293.502 20.9559 293.601 20.994 293.706 21.0117C293.915 21.0461 294.129 20.9964 294.301 20.8736C294.474 20.7507 294.591 20.5645 294.627 20.3558L296.022 12.2539C296.066 11.9946 296.161 11.7464 296.301 11.5236C296.441 11.3008 296.623 11.1078 296.838 10.9555C297.052 10.8032 297.294 10.6947 297.551 10.6361C297.807 10.5775 298.073 10.57 298.332 10.614C298.591 10.658 298.84 10.7526 299.062 10.8925C299.285 11.0324 299.478 11.2148 299.631 11.4292C299.783 11.6437 299.891 11.8861 299.95 12.1426C300.009 12.399 300.016 12.6645 299.972 12.9239L297.181 29.2113C297.181 29.2113 294.348 45.7987 288.702 48.7505C283.971 51.2348 272.91 43.9913 272.91 43.9913C272.91 43.9913 274.271 34.4799 273.706 33.2796Z" fill="#E3867E"/>
<path d="M151.076 292.671H149.917V390.137H151.076V292.671Z" fill="#6564B5"/>
<path d="M148.082 306.788C148.082 307.265 148.224 307.732 148.489 308.129C148.754 308.526 149.131 308.836 149.573 309.019C150.014 309.201 150.499 309.249 150.968 309.156C151.436 309.063 151.866 308.833 152.204 308.495C152.542 308.157 152.771 307.727 152.865 307.259C152.958 306.79 152.91 306.305 152.727 305.864C152.545 305.423 152.235 305.046 151.838 304.78C151.441 304.515 150.974 304.373 150.497 304.373C150.179 304.373 149.865 304.436 149.573 304.557C149.28 304.678 149.013 304.856 148.789 305.081C148.565 305.305 148.387 305.571 148.266 305.864C148.144 306.157 148.082 306.471 148.082 306.788Z" fill="#FCD94E"/>
<path d="M148.082 329.991C148.082 330.468 148.224 330.935 148.489 331.332C148.754 331.729 149.131 332.039 149.573 332.221C150.014 332.404 150.499 332.452 150.968 332.359C151.436 332.266 151.866 332.036 152.204 331.698C152.542 331.36 152.771 330.93 152.865 330.462C152.958 329.993 152.91 329.508 152.727 329.067C152.545 328.626 152.235 328.248 151.838 327.983C151.441 327.718 150.974 327.576 150.497 327.576C149.856 327.576 149.242 327.831 148.789 328.283C148.336 328.736 148.082 329.35 148.082 329.991Z" fill="#FCD94E"/>
<path d="M150.497 355.608C151.83 355.608 152.911 354.527 152.911 353.194C152.911 351.86 151.83 350.779 150.497 350.779C149.163 350.779 148.082 351.86 148.082 353.194C148.082 354.527 149.163 355.608 150.497 355.608Z" fill="#FCD94E"/>
<path d="M150.497 378.804C151.83 378.804 152.911 377.723 152.911 376.39C152.911 375.056 151.83 373.975 150.497 373.975C149.163 373.975 148.082 375.056 148.082 376.39C148.082 377.723 149.163 378.804 150.497 378.804Z" fill="#FCD94E"/>
</svg>
