<svg width="17" height="13" viewBox="0 0 17 13" fill="none" xmlns="http://www.w3.org/2000/svg">
<path d="M0.900219 0.0400006C0.79951 0.0385764 0.699522 0.0571821 0.606066 0.0947366C0.51261 0.132291 0.42755 0.188045 0.355829 0.258759C0.284108 0.329473 0.227157 0.413736 0.188285 0.506651C0.149412 0.599567 0.129395 0.699282 0.129395 0.800001C0.129395 0.90072 0.149412 1.00043 0.188285 1.09335C0.227157 1.18627 0.284108 1.27053 0.355829 1.34124C0.42755 1.41196 0.51261 1.46771 0.606066 1.50526C0.699522 1.54282 0.79951 1.56142 0.900219 1.56H16.1002C16.2009 1.56142 16.3009 1.54282 16.3944 1.50526C16.4878 1.46771 16.5729 1.41196 16.6446 1.34124C16.7163 1.27053 16.7733 1.18627 16.8122 1.09335C16.851 1.00043 16.871 0.90072 16.871 0.800001C16.871 0.699282 16.851 0.599567 16.8122 0.506651C16.7733 0.413736 16.7163 0.329473 16.6446 0.258759C16.5729 0.188045 16.4878 0.132291 16.3944 0.0947366C16.3009 0.0571821 16.2009 0.0385764 16.1002 0.0400006H0.900219ZM0.900219 5.74C0.79951 5.73858 0.699522 5.75718 0.606066 5.79474C0.51261 5.83229 0.42755 5.88805 0.355829 5.95876C0.284108 6.02947 0.227157 6.11374 0.188285 6.20665C0.149412 6.29957 0.129395 6.39928 0.129395 6.5C0.129395 6.60072 0.149412 6.70044 0.188285 6.79335C0.227157 6.88627 0.284108 6.97053 0.355829 7.04124C0.42755 7.11196 0.51261 7.16771 0.606066 7.20527C0.699522 7.24282 0.79951 7.26143 0.900219 7.26H16.1002C16.2009 7.26143 16.3009 7.24282 16.3944 7.20527C16.4878 7.16771 16.5729 7.11196 16.6446 7.04124C16.7163 6.97053 16.7733 6.88627 16.8122 6.79335C16.851 6.70044 16.871 6.60072 16.871 6.5C16.871 6.39928 16.851 6.29957 16.8122 6.20665C16.7733 6.11374 16.7163 6.02947 16.6446 5.95876C16.5729 5.88805 16.4878 5.83229 16.3944 5.79474C16.3009 5.75718 16.2009 5.73858 16.1002 5.74H0.900219ZM0.900219 11.44C0.79951 11.4386 0.699522 11.4572 0.606066 11.4947C0.51261 11.5323 0.42755 11.588 0.355829 11.6588C0.284108 11.7295 0.227157 11.8137 0.188285 11.9067C0.149412 11.9996 0.129395 12.0993 0.129395 12.2C0.129395 12.3007 0.149412 12.4004 0.188285 12.4934C0.227157 12.5863 0.284108 12.6705 0.355829 12.7412C0.42755 12.812 0.51261 12.8677 0.606066 12.9053C0.699522 12.9428 0.79951 12.9614 0.900219 12.96H16.1002C16.2009 12.9614 16.3009 12.9428 16.3944 12.9053C16.4878 12.8677 16.5729 12.812 16.6446 12.7412C16.7163 12.6705 16.7733 12.5863 16.8122 12.4934C16.851 12.4004 16.871 12.3007 16.871 12.2C16.871 12.0993 16.851 11.9996 16.8122 11.9067C16.7733 11.8137 16.7163 11.7295 16.6446 11.6588C16.5729 11.588 16.4878 11.5323 16.3944 11.4947C16.3009 11.4572 16.2009 11.4386 16.1002 11.44H0.900219Z" fill="#0D508F"/>
</svg>
