<svg width="42" height="42" viewBox="0 0 42 42" fill="none" xmlns="http://www.w3.org/2000/svg">
<path fill-rule="evenodd" clip-rule="evenodd" d="M9.09309 9.12376H17.692V17.6852H9.09309V9.12376ZM12.1571 5.05771e-06H7.86273C6.83673 -0.00116756 5.82072 0.201571 4.87374 0.596441C3.91939 0.991738 3.05204 1.57074 2.321 2.30054C1.5914 3.03176 1.01243 3.89907 0.616894 4.85329C0.212787 5.80531 0.00304991 6.8285 9.73224e-06 7.86273V13.1693H3.4866V7.86273C3.49018 7.28915 3.60597 6.72182 3.82742 6.19271C4.04478 5.66107 4.36569 5.17796 4.77149 4.77149C5.59179 3.9526 6.70365 3.4929 7.86273 3.49341H12.1571V5.05771e-06ZM33.9253 5.05771e-06H31.1203V3.4866H33.9253C34.4988 3.49053 35.0661 3.6063 35.5953 3.82742C36.1251 4.04827 36.6075 4.36876 37.0165 4.77149L37.1358 4.89418C37.4879 5.27615 37.7705 5.71677 37.9708 6.19612C38.1938 6.72356 38.3096 7.29009 38.3116 7.86273V13.1693H41.7982V7.86273C41.7991 5.83799 41.0147 3.89181 39.6101 2.43346L39.484 2.30736C38.7528 1.57777 37.8855 0.99879 36.9313 0.603257C35.9794 0.20427 34.9574 -0.000816031 33.9253 5.05771e-06ZM41.788 34.0173V28.1245H38.3014V34.0173C38.2994 34.5899 38.1836 35.1564 37.9606 35.6839C37.7373 36.2148 37.4132 36.6975 37.0063 37.1051C36.6017 37.5125 36.1207 37.836 35.5908 38.0571C35.0609 38.2781 34.4926 38.3924 33.9184 38.3934H31.1203V41.88H33.9253C34.9572 41.8793 35.9789 41.6747 36.9316 41.2782C37.8844 40.8817 38.7495 40.3009 39.4772 39.5692C40.2056 38.837 40.7844 37.97 41.1813 37.0165C41.5751 36.0656 41.7778 35.0465 41.7778 34.0173H41.788ZM7.86273 41.88H12.1571V38.3934H7.86273C7.28801 38.3929 6.71906 38.2788 6.18857 38.0577C5.65807 37.8366 5.17649 37.5129 4.77149 37.1051L4.68288 37.0233C4.30077 36.6205 3.99888 36.1486 3.79334 35.6328C3.58764 35.1191 3.48236 34.5707 3.48319 34.0173V28.1245H9.73224e-06V34.0173C-0.00158055 35.0186 0.191737 36.0107 0.56918 36.9381C0.945358 37.8743 1.4998 38.7286 2.20171 39.4534L2.30736 39.5727C3.03981 40.3023 3.90825 40.8813 4.86352 41.2768C5.81399 41.6719 6.83339 41.8746 7.86273 41.8732V41.88ZM30.5341 30.5989H32.7188V32.7562H30.5341V30.5989ZM26.3216 30.5989H28.5164V32.6438H24.1301V28.4483H26.2432V26.3181H28.404V22.0715H30.6057V24.1573H32.6915V26.3147H30.6057V28.4721H26.3216V30.5954V30.5989ZM19.8153 26.2841H21.9386V24.1267H19.8937V21.9693H21.9386V19.8119H19.8494V21.9693H17.6545V19.8119H19.8119V13.4045H22.0034V19.8085H24.1267V21.9659H26.2159V19.8085H28.4074V21.9659H26.3216V24.1233H24.1301V28.3699H22.0068V32.654H19.8153V26.2841ZM30.5 19.8085H32.6915V21.9659H30.5V19.8085ZM13.3772 19.8085H15.5687V21.9659H13.3772V19.8085ZM9.09309 19.8085H11.2846V21.9659H9.09309V19.8085ZM19.8153 9.12376H22.0068V11.2812H19.8153V9.12376ZM9.05901 24.1573H17.6545V32.7188H9.05901V24.1573ZM11.1482 26.2432H15.5789V30.6432H11.1482V26.2432ZM24.0994 9.12717H32.6915V17.6852H24.096V9.12376L24.0994 9.12717ZM26.1886 11.2062H30.6193V15.6062H26.1886V11.2028V11.2062ZM11.1925 11.2062H15.6232V15.6062H11.1925V11.2028V11.2062Z" fill="#0D508F"/>
</svg>
