<svg width="729" height="532" viewBox="0 0 729 532" fill="none" xmlns="http://www.w3.org/2000/svg">
<path d="M510.255 49.5851C508.134 49.5851 506.061 48.9565 504.297 47.7788C502.534 46.6011 501.159 44.9272 500.348 42.9687C499.536 41.0102 499.324 38.8552 499.737 36.7761C500.151 34.697 501.173 32.7872 502.672 31.2882C504.172 29.7893 506.083 28.7685 508.163 28.3549C510.243 27.9414 512.399 28.1536 514.358 28.9648C516.318 29.7761 517.992 31.1498 519.171 32.9124C520.349 34.675 520.978 36.7472 520.978 38.8671C520.978 41.7097 519.848 44.4358 517.837 46.4459C515.826 48.4559 513.099 49.5851 510.255 49.5851V49.5851ZM510.255 31.7693C508.848 31.7687 507.472 32.1852 506.302 32.9661C505.132 33.7469 504.22 34.8571 503.681 36.1562C503.142 37.4552 503.001 38.8848 503.275 40.2642C503.549 41.6435 504.226 42.9106 505.221 43.9052C506.216 44.8998 507.483 45.5772 508.863 45.8518C510.243 46.1264 511.673 45.9857 512.973 45.4477C514.273 44.9097 515.384 43.9984 516.166 42.8292C516.947 41.6599 517.365 40.2852 517.365 38.879C517.363 36.9944 516.614 35.1874 515.281 33.8545C513.948 32.5216 512.14 31.7717 510.255 31.7693V31.7693Z" fill="#99BBDD"/>
<path d="M78.059 135.565C75.9381 135.565 73.8649 134.936 72.1015 133.759C70.338 132.581 68.9636 130.907 68.152 128.949C67.3404 126.99 67.128 124.835 67.5418 122.756C67.9555 120.677 68.9768 118.767 70.4765 117.268C71.9762 115.769 73.8869 114.748 75.967 114.335C78.0471 113.921 80.2031 114.133 82.1625 114.945C84.1219 115.756 85.7967 117.13 86.975 118.892C88.1532 120.655 88.7822 122.727 88.7822 124.847C88.7822 127.69 87.6524 130.416 85.6414 132.426C83.6304 134.436 80.9029 135.565 78.059 135.565V135.565ZM78.059 117.749C76.6521 117.749 75.2769 118.166 74.1071 118.947C72.9374 119.729 72.0257 120.839 71.4873 122.138C70.949 123.437 70.8081 124.867 71.0826 126.246C71.357 127.625 72.0345 128.892 73.0293 129.886C74.024 130.88 75.2914 131.558 76.6712 131.832C78.051 132.106 79.4812 131.965 80.781 131.427C82.0807 130.889 83.1916 129.978 83.9732 128.809C84.7548 127.64 85.172 126.265 85.172 124.859C85.1704 122.974 84.4205 121.166 83.0869 119.833C81.7533 118.5 79.945 117.751 78.059 117.749V117.749Z" fill="#99BBDD"/>
<path d="M339.151 17.0945C337.476 17.0945 335.838 16.5979 334.445 15.6675C333.052 14.7371 331.966 13.4147 331.325 11.8675C330.683 10.3203 330.516 8.6178 330.842 6.9753C331.169 5.33281 331.976 3.82408 333.161 2.63991C334.346 1.45574 335.855 0.649308 337.498 0.322596C339.142 -0.00411555 340.845 0.163568 342.393 0.804436C343.941 1.4453 345.264 2.53057 346.195 3.92301C347.126 5.31545 347.622 6.95252 347.622 8.62719C347.62 10.8721 346.727 13.0244 345.139 14.6118C343.55 16.1993 341.397 17.0921 339.151 17.0945ZM339.151 3.76236C338.188 3.76236 337.247 4.04768 336.447 4.58223C335.647 5.11679 335.023 5.87657 334.654 6.7655C334.286 7.65443 334.19 8.63259 334.377 9.57627C334.565 10.52 335.029 11.3868 335.709 12.0671C336.39 12.7475 337.257 13.2108 338.201 13.3985C339.146 13.5862 340.124 13.4899 341.014 13.1217C341.903 12.7535 342.663 12.1299 343.198 11.3299C343.733 10.5299 344.018 9.58936 344.018 8.62719C344.017 7.33744 343.503 6.10097 342.591 5.18898C341.678 4.277 340.441 3.76394 339.151 3.76236V3.76236Z" fill="#99BBDD"/>
<path d="M714.466 231.215C712.345 231.215 710.272 230.586 708.509 229.409C706.745 228.231 705.371 226.557 704.559 224.598C703.748 222.64 703.535 220.485 703.949 218.406C704.363 216.327 705.384 214.417 706.884 212.918C708.383 211.419 710.294 210.398 712.374 209.985C714.454 209.571 716.61 209.783 718.57 210.595C720.529 211.406 722.204 212.78 723.382 214.542C724.56 216.305 725.189 218.377 725.189 220.497C725.189 223.339 724.06 226.066 722.049 228.076C720.038 230.086 717.31 231.215 714.466 231.215V231.215ZM714.466 213.399C713.06 213.399 711.685 213.816 710.516 214.597C709.347 215.378 708.435 216.488 707.897 217.786C707.359 219.085 707.218 220.514 707.493 221.892C707.767 223.271 708.444 224.537 709.439 225.531C710.433 226.525 711.7 227.202 713.079 227.476C714.458 227.75 715.888 227.609 717.187 227.072C718.486 226.534 719.597 225.623 720.378 224.454C721.159 223.285 721.576 221.911 721.576 220.506C721.574 218.622 720.824 216.815 719.491 215.483C718.158 214.151 716.351 213.401 714.466 213.399V213.399Z" fill="#99BBDD"/>
<path d="M225.783 228.092L171.687 198.424L174.618 92.7135L253.371 129.036L225.783 228.092ZM175.348 196.325L223.531 222.751L249.079 131.052L178.068 98.3018L175.348 196.325Z" fill="#99BBDD"/>
<path d="M294.56 232.075L232.902 230.039L259.674 130.775L345.957 139.635L294.56 232.075ZM237.549 226.591L292.478 228.404L340.137 142.66L262.355 134.669L237.549 226.591Z" fill="#99BBDD"/>
<path d="M236.089 230.42L222.837 226.791L249.964 127.83L263.216 131.459L236.089 230.42ZM227.263 224.269L233.566 225.996L258.781 133.981L252.478 132.254L227.263 224.269Z" fill="#99BBDD"/>
<path d="M333.921 140.153L328.824 133.734C306.984 125.398 289.065 123.927 277.844 124.177C268.095 124.394 261.593 125.904 259.314 126.523L257.851 131.858L254.375 130.906L256.359 123.674L257.273 123.376C257.571 123.278 264.854 120.896 277.576 120.592C289.235 120.313 307.896 121.813 330.578 130.557L331.034 130.736L336.741 137.926L333.921 140.153Z" fill="#99BBDD"/>
<path d="M257.851 131.858L254.375 130.906L255.838 125.57C254.194 123.879 249.371 119.268 241.093 114.111C231.562 108.18 215.402 100.308 192.359 96.3606L184.701 99.2873L183.42 95.9259L191.996 92.651L192.481 92.7343C216.454 96.7655 233.274 104.98 243.163 111.161C253.952 117.907 259.001 123.665 259.21 123.903L259.841 124.63L257.851 131.858Z" fill="#99BBDD"/>
<path d="M331.27 133.43L328.589 131.028L335.797 122.989C329.902 123.361 318.354 123.09 298.29 119.119C282.577 116.016 272.798 118.095 267.365 120.384C261.563 122.828 259.367 126.041 259.344 126.056L256.332 124.103C256.731 123.489 266.46 109.181 298.99 115.606C329.587 121.649 339.797 118.88 339.881 118.848L345.916 117.106L341.745 121.777L331.27 133.43Z" fill="#99BBDD"/>
<path d="M248.71 138.613L247.758 142.085L257.673 144.799L258.624 141.328L248.71 138.613Z" fill="#99BBDD"/>
<path d="M246.482 146.711L245.531 150.183L255.445 152.897L256.396 149.426L246.482 146.711Z" fill="#99BBDD"/>
<path d="M228.574 211.843L227.598 215.308L237.492 218.093L238.469 214.628L228.574 211.843Z" fill="#99BBDD"/>
<path d="M230.854 203.75L229.878 207.215L239.772 210L240.749 206.536L230.854 203.75Z" fill="#99BBDD"/>
<path d="M260.812 128.768C262.065 128.343 263.343 127.999 264.64 127.738C265.935 127.467 267.24 127.25 268.554 127.074C271.176 126.73 273.815 126.531 276.459 126.478H278.443C279.104 126.478 279.762 126.505 280.424 126.523C281.743 126.568 283.063 126.636 284.379 126.752C285.696 126.868 287.004 127.026 288.314 127.181C289.625 127.336 290.923 127.592 292.216 127.854C290.891 127.89 289.577 127.854 288.263 127.854H286.295C285.639 127.854 284.987 127.824 284.332 127.833C283.676 127.842 283.021 127.833 282.366 127.833C281.71 127.833 281.058 127.833 280.406 127.833C279.098 127.833 277.79 127.854 276.486 127.869C273.874 127.928 271.261 128.003 268.652 128.167C266.043 128.33 263.433 128.461 260.812 128.768Z" fill="#99BBDD"/>
<path d="M283.298 130.903C286.864 130.417 290.462 130.21 294.06 130.283C297.658 130.325 301.249 130.541 304.831 130.932C305.724 131.031 306.618 131.153 307.512 131.263L308.849 131.439L310.181 131.65L312.843 132.091C313.737 132.254 314.607 132.433 315.489 132.612C317.255 132.942 318.997 133.401 320.743 133.802C321.178 133.91 321.613 134.026 322.045 134.151L323.34 134.523C324.201 134.773 325.062 135.029 325.917 135.3C324.13 135.056 322.375 134.719 320.606 134.451L317.955 134.035C317.514 133.972 317.061 133.886 316.632 133.823L315.304 133.636C314.41 133.511 313.538 133.383 312.656 133.243L309.999 132.9L308.673 132.722L307.345 132.57C306.451 132.469 305.558 132.353 304.688 132.272C301.14 131.891 297.587 131.57 294.024 131.331C290.462 131.093 286.89 130.929 283.298 130.903Z" fill="#99BBDD"/>
<path d="M256.219 126.627C253.794 125.177 251.417 123.677 249.046 122.161L241.942 117.636L234.832 113.137L227.654 108.695C230.293 109.709 232.865 110.887 235.356 112.223C237.847 113.56 240.292 114.977 242.669 116.499C245.046 118.02 247.372 119.619 249.639 121.295C251.906 122.971 254.125 124.728 256.219 126.627Z" fill="#99BBDD"/>
<path d="M242.27 121.855C238.731 120.089 235.231 118.282 231.734 116.451L226.489 113.721L223.871 112.354L221.249 111.003C219.501 110.11 217.755 109.184 215.995 108.305C215.116 107.859 214.247 107.394 213.365 106.963C212.483 106.531 211.605 106.069 210.726 105.632C207.199 103.881 203.652 102.158 200.086 100.463C203.857 101.665 207.559 103.073 211.176 104.679C212.987 105.471 214.78 106.308 216.564 107.159C217.458 107.582 218.351 108.022 219.224 108.469L221.869 109.803C223.615 110.729 225.366 111.646 227.097 112.601C227.96 113.078 228.821 113.566 229.679 114.051C230.537 114.537 231.398 115.031 232.247 115.54C235.648 117.532 239.014 119.607 242.27 121.855Z" fill="#99BBDD"/>
<path d="M108.418 521.085L105.621 520.838C105.695 519.963 113.874 432.527 158.575 366.462L160.899 368.037C116.603 433.507 108.495 520.219 108.418 521.085Z" fill="#99BBDD"/>
<path d="M94.954 521.056L92.151 520.868C92.2523 519.379 102.07 371.113 87.1647 325.582L89.8455 324.706C104.897 370.752 95.3531 514.94 94.954 521.056Z" fill="#99BBDD"/>
<path d="M76.9717 521.041C76.9271 520.285 72.2059 445.166 22.8732 414.753L24.3447 412.371C74.9373 443.561 79.73 520.115 79.7628 520.886L76.9717 521.041Z" fill="#99BBDD"/>
<path d="M121.393 521.282L118.658 520.642C118.709 520.427 123.782 498.866 129.34 477.755C132.259 466.673 138.213 463.529 142.997 460.999C147.781 458.468 151.164 456.682 150.646 447.872C150.385 443.699 149.899 439.542 149.193 435.421C147.861 427.085 147.253 423.298 154.837 412.746C159.284 406.563 163.219 404.577 166.09 403.127C169.82 401.242 171.69 400.299 171.991 391.03C172.078 388.351 172.116 386.112 172.152 384.183C172.34 373.429 172.364 372.047 179.268 362.193C181.094 359.582 180.209 356.813 179.146 354.949C176.513 350.337 169.343 345.693 162.448 346.226C157.464 346.61 153.738 349.671 151.674 355.077C144.924 372.759 140.796 375.748 133.301 381.176C131.636 382.384 129.748 383.751 127.642 385.433C116.895 394.026 113.606 398.089 115.796 413.366C117.142 422.786 112.06 433.456 107.581 442.87C104.474 449.39 101.543 455.55 101.76 459.504C102.323 469.591 98.4033 518.975 98.2365 521.074L95.4365 520.85C95.4752 520.338 99.5054 469.558 98.9573 459.659C98.6981 454.991 101.638 448.816 105.043 441.664C109.356 432.608 114.241 422.345 113.014 413.765C110.631 397.178 114.658 392.218 125.884 383.242C128.044 381.515 129.959 380.128 131.651 378.904C138.708 373.792 142.595 370.976 149.047 354.077C151.489 347.676 156.172 343.895 162.23 343.427C169.528 342.859 178.017 347.298 181.591 353.55C183.677 357.182 183.659 360.82 181.574 363.798C175.164 372.95 175.149 373.801 174.967 384.227C174.931 386.169 174.892 388.428 174.803 391.117C174.469 401.537 171.89 403.341 167.356 405.625C164.598 407.018 161.164 408.754 157.119 414.381C150.208 423.991 150.688 426.984 151.966 434.972C152.692 439.184 153.189 443.433 153.455 447.699C154.078 458.313 149.335 460.82 144.313 463.479C139.792 465.86 134.666 468.576 132.062 478.466C126.507 499.533 121.443 521.068 121.393 521.282Z" fill="#99BBDD"/>
<path d="M68.6404 521.205C68.5927 520.922 63.5558 492.876 52.9279 485.439C41.2516 477.269 37.7367 471.13 36.6019 456.887C36.447 454.943 36.3338 453.216 36.2325 451.668C35.607 442.043 35.4938 440.307 28.9824 437.27C26.7127 436.213 24.5949 435.668 22.5455 435.141C17.2495 433.784 12.6742 432.611 11.3309 423.253C10.6696 418.635 8.59345 416.703 6.18967 414.473C3.00845 411.514 -0.595734 408.162 0.0834022 398.28C0.434885 393.189 3.25866 391.325 5.56415 390.658C14.8993 387.946 34.0581 400.185 39.1367 407.09C42.9256 412.258 45.9221 413.324 49.3893 414.557C51.3344 415.247 53.342 415.965 55.6117 417.406C56.1449 417.748 56.6959 418.088 57.25 418.433C63.0763 422.05 70.3263 426.555 71.4195 436.975L71.5714 438.395C72.5812 448.122 73.1918 453.996 79.2087 458.453C86.1699 463.61 85.592 473.902 85.032 483.855L84.9129 486.046C84.3588 496.526 85.3358 520.663 85.3448 520.904L82.5389 521.02C82.5389 520.776 81.547 496.508 82.104 485.888L82.2261 483.688C82.7682 474.057 83.2806 464.955 77.5347 460.701C70.5259 455.506 69.8289 448.81 68.7774 438.669L68.6285 437.249C67.6753 428.195 61.6227 424.447 55.7696 420.8C55.2036 420.449 54.6466 420.103 54.1015 419.758C52.1028 418.484 50.2293 417.823 48.4421 417.186C44.8677 415.911 41.1652 414.595 36.864 408.736C32.253 402.451 14.2261 391.054 6.34159 393.338C4.98033 393.731 3.14249 394.689 2.88335 398.453C2.28761 407 4.98331 409.501 8.09602 412.398C10.5385 414.667 13.3057 417.239 14.107 422.836C15.1823 430.339 18.2145 431.116 23.2396 432.405C25.3097 432.935 27.6569 433.54 30.165 434.707C38.1835 438.449 38.395 441.727 39.0325 451.469C39.1308 453.002 39.241 454.717 39.3958 456.643C40.4801 470.172 43.4498 475.367 54.5334 483.12C66.1115 491.224 71.1901 519.502 71.4016 520.701L68.6404 521.205Z" fill="#99BBDD"/>
<path d="M82.5389 467.266C82.5389 467.096 82.4376 450.114 77.0581 435.933C71.3093 420.779 70.3144 414.482 73.7012 395.877C75.4318 386.35 72.5097 379.464 69.4387 372.164C66.6953 365.664 63.8567 358.945 64.1247 350.043C64.3958 341.224 66.8056 337.601 68.9174 334.406C71.3004 330.834 73.1739 327.993 71.214 317.754C69.8736 310.764 76.7037 304.637 83.8018 302.97C91.1115 301.246 100.941 303.776 104.524 316.576C108.918 332.275 109.374 341.954 109.678 348.361C109.975 354.911 110.142 358.185 113.749 362.056C118.682 367.341 117.744 373.491 116.66 380.616C115.882 385.713 115 391.492 116.222 397.884L113.463 398.411C112.153 391.531 113.07 385.499 113.88 380.178C114.899 373.512 115.7 368.246 111.694 363.955C107.384 359.341 107.19 355.259 106.872 348.492C106.556 341.837 106.127 332.712 101.808 317.332C98.7637 306.462 90.8434 304.199 84.4303 305.7C78.5951 307.072 72.9327 311.871 73.9603 317.228C76.1377 328.592 73.7607 332.17 71.2467 335.96C69.2421 338.982 67.166 342.108 66.9217 350.126C66.6715 358.418 69.388 364.852 72.0152 371.071C75.119 378.428 78.333 386.035 76.4505 396.378C73.1888 414.304 74.145 420.365 79.6734 434.936C85.2375 449.605 85.3329 466.545 85.3329 467.26L82.5389 467.266Z" fill="#99BBDD"/>
<path d="M58.1257 518.867H715.083C718.57 518.867 721.914 520.252 724.38 522.717C726.845 525.181 728.231 528.524 728.231 532.009V532.009H44.9779C44.9779 528.524 46.3631 525.181 48.8288 522.717C51.2945 520.252 54.6387 518.867 58.1257 518.867V518.867Z" fill="#576C89"/>
<path d="M457.657 189.007C440.606 188.999 424.217 182.406 411.915 170.604C399.613 158.802 392.35 142.705 391.643 125.676C390.937 108.647 396.842 92.004 408.124 79.2246C419.406 66.4452 435.193 58.5181 452.185 57.0997C469.177 55.6812 486.061 60.8813 499.308 71.6132C512.554 82.3451 521.139 97.7785 523.268 114.689C525.398 131.599 520.906 148.677 510.733 162.355C500.56 176.033 485.493 185.252 468.678 188.087C465.037 188.698 461.35 189.006 457.657 189.007V189.007ZM457.931 60.8481C454.438 60.8477 450.951 61.1385 447.506 61.7174C431.735 64.3856 417.605 73.041 408.068 85.8757C398.531 98.7104 394.324 114.732 396.325 130.594C398.327 146.456 406.382 160.931 418.809 170.997C431.236 181.063 447.073 185.941 463.013 184.612C478.953 183.283 493.762 175.849 504.349 163.864C514.935 151.879 520.479 136.27 519.823 120.295C519.167 104.321 512.362 89.2182 500.829 78.1405C489.296 67.0628 473.927 60.8673 457.931 60.8481Z" fill="#99BBDD"/>
<path d="M457.726 175.811C446.773 175.822 436.092 172.404 427.183 166.037C403.52 149.162 397.992 116.192 414.881 92.5408C431.77 68.8896 464.746 63.3638 488.412 80.2418C497.514 86.727 504.317 95.9367 507.838 106.54C511.359 117.143 511.417 128.591 508.002 139.229C504.587 149.867 497.876 159.144 488.84 165.72C479.803 172.296 468.909 175.83 457.732 175.811H457.726ZM457.866 74.064C450.032 74.0481 442.308 75.9065 435.34 79.484C428.372 83.0615 422.362 88.2541 417.812 94.6279C402.084 116.659 407.228 147.382 429.277 163.105C439.884 170.658 453.057 173.694 465.903 171.545C478.748 169.397 490.216 162.241 497.786 151.648C513.513 129.616 508.369 98.8913 486.321 83.1714C478.02 77.2397 468.07 74.0549 457.866 74.064V74.064Z" fill="#99BBDD"/>
<path d="M481.484 89.9357C478.302 87.5545 474.79 85.649 471.058 84.279L472.297 80.8998C476.354 82.3854 480.172 84.4535 483.631 87.0389L481.484 89.9357Z" fill="#99BBDD"/>
<path d="M424.445 99.3587L421.511 97.2747C426.024 90.9433 432.118 85.9033 439.184 82.656C446.251 79.4087 454.045 78.0673 461.792 78.7651L461.473 82.3378C454.354 81.7179 447.196 82.9614 440.703 85.9458C434.211 88.9303 428.608 93.5529 424.445 99.3587V99.3587Z" fill="#99BBDD"/>
<path d="M517.907 181.569L501.861 170.128L503.952 167.198L517.067 176.547L526.521 163.301L513.644 154.119L515.738 151.19L531.546 162.461L517.907 181.569Z" fill="#99BBDD"/>
<path d="M611.455 254.714L511.935 183.758L531.674 156.093L631.197 227.05L611.455 254.714ZM516.957 182.915L610.615 249.692L626.172 227.892L532.52 161.116L516.957 182.915Z" fill="#99BBDD"/>
<path d="M414.645 445.606H627.209C627.209 445.606 623.498 460.984 623.498 477.701C623.498 493.936 627.209 509.793 627.209 509.793H414.645C411.025 509.793 407.552 508.355 404.991 505.796C402.431 503.238 400.992 499.767 400.991 496.148V459.269C400.99 457.476 401.342 455.699 402.027 454.042C402.713 452.385 403.718 450.879 404.986 449.61C406.254 448.341 407.76 447.334 409.417 446.647C411.075 445.96 412.851 445.607 414.645 445.606V445.606Z" fill="#FAE0B2"/>
<path d="M630.077 436.877C631.235 436.878 632.346 437.338 633.164 438.156C633.983 438.975 634.443 440.084 634.444 441.242C634.443 442.399 633.982 443.508 633.163 444.326C632.345 445.144 631.235 445.605 630.077 445.606H414.645C412.851 445.607 411.075 445.961 409.417 446.647C407.76 447.334 406.254 448.341 404.986 449.61C403.718 450.879 402.713 452.385 402.027 454.042C401.342 455.699 400.99 457.476 400.991 459.269V496.148C400.992 499.767 402.431 503.238 404.991 505.797C407.552 508.355 411.025 509.793 414.645 509.793H630.077C630.651 509.792 631.219 509.904 631.749 510.123C632.28 510.342 632.761 510.664 633.167 511.069C633.573 511.475 633.894 511.956 634.113 512.486C634.333 513.016 634.445 513.584 634.444 514.157C634.443 515.315 633.982 516.424 633.163 517.242C632.345 518.06 631.235 518.52 630.077 518.522H414.645C408.709 518.522 403.015 516.165 398.817 511.969C394.619 507.773 392.261 502.082 392.261 496.148V459.254C392.26 456.316 392.839 453.406 393.964 450.691C395.089 447.976 396.737 445.509 398.816 443.431C400.895 441.353 403.362 439.705 406.078 438.58C408.794 437.456 411.706 436.877 414.645 436.877H630.077Z" fill="#184655"/>
<path d="M428.666 458.03C441.254 457.469 453.841 457.092 466.427 456.899C479.014 456.667 491.602 456.601 504.187 456.577C516.775 456.601 529.363 456.664 541.951 456.896C554.538 457.128 567.123 457.465 579.711 458.03C567.123 458.596 554.536 458.974 541.951 459.165C529.363 459.397 516.775 459.462 504.187 459.483C491.602 459.456 479.014 459.394 466.427 459.162C453.839 458.93 441.254 458.593 428.666 458.03Z" fill="#E5BD83"/>
<path d="M420.793 477.701C425.559 477.106 430.304 476.784 435.061 476.57C439.818 476.355 444.575 476.272 449.329 476.248C454.095 476.272 458.843 476.334 463.597 476.567C468.351 476.799 473.111 477.097 477.865 477.701C473.099 478.297 468.354 478.624 463.597 478.835C458.84 479.047 454.086 479.133 449.329 479.154C444.563 479.127 439.818 479.065 435.061 478.832C430.304 478.6 425.55 478.302 420.793 477.701Z" fill="#E5BD83"/>
<path d="M457.202 497.863C461.967 497.267 466.712 496.946 471.469 496.732C476.226 496.517 480.983 496.434 485.737 496.41C490.503 496.437 495.251 496.496 500.005 496.729C504.759 496.961 509.519 497.259 514.276 497.863C509.51 498.458 504.762 498.786 500.005 499C495.248 499.215 490.494 499.298 485.737 499.319C480.971 499.289 476.226 499.226 471.469 498.994C466.712 498.762 461.959 498.467 457.202 497.863Z" fill="#E5BD83"/>
<path d="M487.244 486.061C498.234 485.497 509.224 485.12 520.215 484.93C531.207 484.698 542.198 484.632 553.186 484.608C564.177 484.632 575.169 484.695 586.16 484.927C597.151 485.159 608.143 485.495 619.131 486.061C608.144 486.627 597.153 487.005 586.16 487.195C575.169 487.428 564.177 487.493 553.186 487.514C542.198 487.487 531.207 487.425 520.215 487.193C509.224 486.96 498.221 486.624 487.244 486.061Z" fill="#E5BD83"/>
<path d="M465.074 516.551C461.904 510.567 460.247 503.898 460.247 497.126C460.247 490.354 461.904 483.686 465.074 477.701H428.666C425.496 483.686 423.838 490.354 423.838 497.126C423.838 503.898 425.496 510.567 428.666 516.551C432.982 513.243 437.775 509.76 443.044 506.193C449.91 509.76 457.255 513.243 465.074 516.551Z" fill="#50BFA5"/>
<path d="M687.065 373.438H414.002V436.877H687.065V373.438Z" fill="#FE875E"/>
<path d="M457.1 373.438H440.941V436.877H457.1V373.438Z" fill="#F7A491"/>
<path d="M643.97 436.877H660.129V373.438H643.97V436.877Z" fill="#F7A491"/>
<path d="M414.005 399.995C414.005 399.995 393.339 409.954 390.018 436.877L398.876 429.502L402.013 436.877C402.013 436.877 404.041 414.009 414.005 405.157V399.995Z" fill="#EFEFEF"/>
<path d="M473.614 339.953C473.614 339.953 479.887 354.515 473.379 372.405L448.68 371.05L386.723 367.677C387.939 362.66 388.569 357.518 388.6 352.356C388.6 344.761 386.723 337.023 386.723 337.023L447.786 339.107L473.614 339.953Z" fill="#FAE0B2"/>
<path d="M385.437 367.594L386.732 367.668L448.689 371.041L473.388 372.396C479.896 354.515 473.623 339.944 473.623 339.944L447.801 339.051L386.738 336.967L385.267 336.922C384.304 336.908 383.386 336.513 382.715 335.822C382.043 335.132 381.674 334.203 381.688 333.241C381.702 332.278 382.098 331.36 382.788 330.69C383.479 330.019 384.408 329.65 385.371 329.663H385.529L477.242 333.055C477.242 333.055 489.353 353.16 477.242 379.187L385.076 374.867C384.119 374.83 383.215 374.419 382.56 373.72C381.905 373.022 381.552 372.094 381.576 371.138C381.601 370.181 382.002 369.272 382.692 368.609C383.382 367.946 384.306 367.581 385.264 367.594H385.437Z" fill="#3C8F7C"/>
<path d="M385.523 329.681L636.848 326.508L635.466 326.567L477.236 333.069L385.523 329.681Z" fill="#3C8F7C"/>
<path d="M480.304 332.944L635.466 326.555C637.301 326.486 639.131 326.786 640.847 327.437C642.564 328.088 644.132 329.078 645.458 330.347C646.785 331.616 647.843 333.138 648.569 334.823C649.295 336.509 649.675 338.323 649.686 340.158L649.79 359.478C649.814 363.029 648.454 366.451 645.998 369.017C643.541 371.584 640.182 373.094 636.631 373.227L477.236 379.181C489.347 353.154 477.236 333.049 477.236 333.049L480.304 332.944Z" fill="#184655"/>
<path d="M473.152 352.428C468.363 352.767 463.591 352.818 458.822 352.767C454.053 352.716 449.29 352.532 444.524 352.297C439.759 351.999 435.016 351.68 430.274 351.186C425.532 350.692 420.79 350.129 416.069 349.263C420.859 348.92 425.631 348.87 430.4 348.92C435.168 348.971 439.931 349.156 444.697 349.394C449.463 349.691 454.205 350.013 458.947 350.507C463.689 351.001 468.431 351.564 473.152 352.428Z" fill="#E5BD83"/>
<path d="M422.539 360.055C417.237 360.398 411.974 360.201 406.716 359.874C401.465 359.493 396.219 358.98 391.013 357.923C396.315 357.578 401.581 357.778 406.835 358.105C412.09 358.492 417.332 359.007 422.539 360.055Z" fill="#E5BD83"/>
<path d="M431.037 380.926C426.2 373.804 426.688 356.893 431.931 350.064C441.436 350.34 450.592 351.514 460.097 351.79C454.854 358.617 454.714 374.632 459.555 381.753C453.664 379.624 447.975 376.974 442.556 373.834C438.394 376.633 434.626 379.089 431.037 380.926Z" fill="#F47458"/>
<path d="M490.625 287.062L495.12 287.464C492.463 287.655 489.869 288.367 487.488 289.56C485.106 290.753 482.983 292.404 481.24 294.418C479.497 296.431 478.169 298.769 477.331 301.296C476.492 303.824 476.16 306.492 476.354 309.147L476.804 315.337C477.13 319.773 478.906 323.979 481.86 327.305C484.813 330.632 488.78 332.895 493.148 333.745L420.942 328.062C418.083 327.787 415.305 326.95 412.77 325.599C410.235 324.248 407.993 322.409 406.171 320.188C404.35 317.967 402.986 315.409 402.158 312.659C401.33 309.909 401.054 307.023 401.346 304.166L401.682 300.838C402.258 295.143 405.055 289.905 409.467 286.256C413.879 282.608 419.551 280.844 425.255 281.346L490.625 287.062Z" fill="#355389"/>
<path d="M664.457 283.358L495.117 287.461L490.625 287.062L425.276 281.346H425.261L424.475 281.277L664.457 283.358Z" fill="#355389"/>
<path d="M659.599 290.188L495.495 294.729C493.664 294.879 491.887 295.418 490.28 296.308C488.673 297.198 487.274 298.419 486.175 299.891C484.215 302.511 483.411 305.816 483.655 309.094L484.081 314.801C484.334 318.033 485.779 321.057 488.136 323.284C490.492 325.512 493.593 326.786 496.836 326.859C497.214 326.859 497.607 326.841 497.986 326.817H498.161L659.87 322.911L663.888 322.81C664.338 322.801 664.784 322.882 665.202 323.049C665.619 323.216 665.998 323.465 666.317 323.782C666.636 324.099 666.888 324.476 667.058 324.893C667.227 325.309 667.311 325.755 667.305 326.204V326.799C667.29 327.659 666.943 328.479 666.338 329.089C665.732 329.699 664.915 330.052 664.055 330.074L498.531 334.073C496.737 334.204 494.933 334.094 493.169 333.745C488.801 332.895 484.834 330.632 481.881 327.305C478.927 323.979 477.15 319.773 476.825 315.337L476.375 309.147C476.181 306.492 476.513 303.824 477.351 301.296C478.19 298.769 479.518 296.431 481.261 294.418C483.004 292.404 485.127 290.753 487.509 289.56C489.89 288.367 492.484 287.655 495.141 287.464L664.478 283.361C665.364 283.337 666.224 283.666 666.868 284.276C667.512 284.885 667.887 285.725 667.911 286.611C667.935 287.497 667.606 288.356 666.996 289C666.387 289.643 665.546 290.018 664.66 290.042L659.599 290.188Z" fill="#86B1F2"/>
<path d="M659.87 322.899L498.161 326.805H497.986C497.607 326.829 497.214 326.853 496.836 326.847C493.593 326.774 490.492 325.5 488.136 323.273C485.779 321.045 484.334 318.021 484.081 314.789L483.655 309.082C483.411 305.807 484.215 302.499 486.175 299.879C487.274 298.407 488.673 297.186 490.28 296.296C491.887 295.406 493.664 294.868 495.495 294.717L659.599 290.176C659.536 290.474 657.475 300.227 657.383 306.498C657.291 312.768 659.87 322.899 659.87 322.899Z" fill="#FAE0B2"/>
<path d="M497.869 304.202C502.602 303.407 507.35 302.895 512.101 302.487C516.852 302.079 521.606 301.802 526.366 301.579C531.132 301.409 535.898 301.281 540.664 301.311C545.43 301.341 550.196 301.451 554.991 301.859C550.255 302.66 545.51 303.172 540.759 303.58C536.008 303.988 531.251 304.265 526.494 304.473C521.728 304.64 516.963 304.771 512.197 304.735C507.431 304.699 502.653 304.61 497.869 304.202Z" fill="#E5BD83"/>
<path d="M537.036 317.448C541.769 316.65 546.517 316.141 551.268 315.733C556.019 315.325 560.773 315.048 565.533 314.825C570.299 314.655 575.064 314.527 579.83 314.557C584.596 314.587 589.362 314.697 594.155 315.105C589.419 315.906 584.674 316.418 579.923 316.826C575.172 317.233 570.415 317.507 565.658 317.719C560.892 317.883 556.126 318.016 551.36 317.981C546.594 317.945 541.82 317.856 537.036 317.448Z" fill="#E5BD83"/>
<path d="M543.541 342.132C550.094 333.323 550.493 311.544 544.191 302.535C532.055 302.359 521.276 303.657 509.141 303.482C515.446 312.479 513.701 332.784 507.136 341.59C514.764 339.205 522.164 336.142 529.247 332.438C534.382 336.252 539.052 339.593 543.541 342.132Z" fill="#50BFA5"/>
<path d="M578.958 308.873C585.475 308.075 592.001 307.563 598.53 307.153C605.06 306.742 611.595 306.462 618.127 306.236C624.665 306.066 631.2 305.938 637.745 305.965C644.289 305.991 650.83 306.099 657.386 306.506C650.869 307.31 644.342 307.822 637.813 308.233C631.284 308.644 624.752 308.921 618.216 309.144C611.678 309.311 605.143 309.442 598.599 309.412C592.055 309.383 585.514 309.287 578.958 308.873Z" fill="#E5BD83"/>
<path d="M291.326 295.449V498.342H145.722V295.449H291.326Z" fill="#FAE0B2"/>
<path d="M414.565 267.308V464.521C371.797 460.412 335.803 440.048 293.232 495.8C292.589 496.621 291.963 497.479 291.32 498.336V295.449C334.737 236.553 371.16 257.483 414.565 261.633V267.308Z" fill="#FAE0B2"/>
<path d="M422.542 474.78V492.912C422.542 492.912 410.329 485.052 366.841 481.426C323.352 477.799 296.765 507.399 296.765 507.399C288.758 514.348 281.055 507.399 281.055 507.399H152.377L145.722 498.342H291.326C291.969 497.467 292.612 496.627 293.238 495.806C336.041 440.357 379.774 470.69 422.542 474.78Z" fill="#E5BD83"/>
<path d="M293.238 495.806C335.809 440.054 371.803 460.418 414.571 464.527V267.308H422.542V474.774C379.774 470.69 336.041 440.357 293.238 495.806Z" fill="#F7CC7F"/>
<path d="M449.153 491.554V292.895L422.542 299.683V492.906C422.542 492.906 410.329 485.046 366.841 481.42C323.352 477.793 296.765 507.393 296.765 507.393C288.758 514.342 281.055 507.393 281.055 507.393H152.377L145.722 498.342V299.683H131.228V519.481H278.029C278.029 519.481 289.503 533.968 304.015 519.481L449.153 491.554Z" fill="#466EB6"/>
<path d="M305.516 492.635C308.527 488.934 312.206 485.805 316.129 483.063C320.06 480.299 324.304 478.011 328.773 476.245C333.241 474.492 337.879 473.107 342.642 472.491C345.007 472.074 347.408 471.97 349.791 471.83C350.982 471.782 352.176 471.8 353.365 471.883C354.557 471.925 355.748 471.991 356.94 472.071C352.192 472.449 347.485 472.786 342.892 473.857C338.295 474.792 333.795 476.15 329.45 477.915C325.085 479.643 320.881 481.753 316.888 484.221C314.875 485.439 312.93 486.77 311.035 488.172C309.116 489.558 307.273 491.048 305.516 492.635V492.635Z" fill="#B28856"/>
<path d="M422.542 488.148C420.447 487.102 418.286 486.195 416.072 485.433C413.892 484.605 411.664 483.909 409.43 483.248C404.946 481.971 400.413 480.894 395.832 480.014C391.269 479.059 386.64 478.448 382.014 477.761C377.379 477.135 372.721 476.692 368.044 476.147C370.394 476.055 372.744 476.07 375.104 476.043C377.451 476.156 379.807 476.233 382.157 476.394C386.864 476.736 391.546 477.36 396.178 478.264C400.819 479.154 405.389 480.385 409.85 481.947C414.267 483.569 418.684 485.418 422.542 488.148Z" fill="#B28856"/>
<path d="M291.32 505.13C292.469 501.775 294.298 498.667 296.383 495.788C298.489 492.913 300.853 490.236 303.446 487.791C306.056 485.373 308.859 483.173 311.828 481.211C313.275 480.187 314.86 479.365 316.379 478.46C317.958 477.653 319.542 476.867 321.145 476.147C318.259 478.195 315.39 480.202 312.629 482.346C311.265 483.435 309.868 484.477 308.569 485.638C307.208 486.728 305.951 487.931 304.658 489.092C302.123 491.474 299.723 493.995 297.468 496.642C295.254 499.319 293.095 502.076 291.32 505.13Z" fill="#B28856"/>
<path d="M167.097 328.982H173.183L180.195 349.254H181.386V351.808H171.142V349.254H173.084L172.101 346.205H164.357L163.329 349.248H165.286V351.802H158.697V349.248H160.166L167.097 328.982ZM168.307 334.758L165.402 343.201H171.11L168.307 334.758Z" fill="#171C51"/>
<path d="M281.955 329.038H200.852V331.756H281.955V329.038Z" fill="#171C51"/>
<path d="M281.955 338.777H191.26V341.495H281.955V338.777Z" fill="#171C51"/>
<path d="M281.955 348.512H191.26V351.231H281.955V348.512Z" fill="#171C51"/>
<path d="M281.955 370.032H171.747V372.75H281.955V370.032Z" fill="#171C51"/>
<path d="M281.958 379.768H158.715V382.486H281.958V379.768Z" fill="#171C51"/>
<path d="M281.958 389.503H158.715V392.221H281.958V389.503Z" fill="#171C51"/>
<path d="M281.955 406.292H171.747V409.01H281.955V406.292Z" fill="#171C51"/>
<path d="M281.958 416.027H158.715V418.746H281.958V416.027Z" fill="#171C51"/>
<path d="M281.958 425.763H158.715V428.481H281.958V425.763Z" fill="#171C51"/>
<path d="M281.955 442.555H171.747V445.273H281.955V442.555Z" fill="#171C51"/>
<path d="M281.958 452.29H158.715V455.008H281.958V452.29Z" fill="#171C51"/>
<path d="M281.958 462.026H158.715V464.744H281.958V462.026Z" fill="#171C51"/>
<path d="M299.094 339.137V336.583C299.582 336.023 300.072 335.477 300.562 334.945V317.257C300.068 317.79 299.582 318.338 299.094 318.895V316.311C302.207 312.669 305.728 309.398 309.588 306.56C311.923 304.878 313.713 304.253 314.923 304.402C316.132 304.55 316.74 305.473 316.74 307.051C316.722 308.329 316.305 309.57 315.548 310.6C314.753 311.761 313.6 312.854 312.114 313.997C313.949 313.05 315.42 312.967 316.507 313.592C317.594 314.218 318.143 315.462 318.143 317.236C318.143 319.446 317.41 321.497 315.959 323.53C314.509 325.564 312.546 327.303 310.115 329.014C306.047 331.932 302.346 335.331 299.094 339.137V339.137ZM306.859 316.623C307.157 316.373 307.455 316.129 307.771 315.888C308.57 315.279 309.255 314.533 309.793 313.685C310.253 312.962 310.501 312.126 310.511 311.27C310.511 310.433 310.267 309.96 309.793 309.874C309.32 309.787 308.602 310.088 307.678 310.824C307.404 311.038 307.13 311.264 306.859 311.484C306.863 313.195 306.863 314.908 306.859 316.623V316.623ZM306.859 319.404C306.859 321.714 306.859 324.031 306.859 326.341C306.859 327.18 307.005 327.675 307.3 327.83C307.595 327.984 308.054 327.809 308.685 327.335C309.619 326.61 310.345 325.651 310.788 324.555C311.314 323.263 311.574 321.879 311.551 320.485C311.551 319.014 311.217 318.103 310.559 317.772C309.901 317.442 308.956 317.728 307.738 318.692C307.443 318.928 307.151 319.163 306.859 319.41V319.404Z" fill="#171C51"/>
<path d="M405.65 300.561C384.71 301.615 358.289 293.079 333.584 300.707V297.992C358.28 290.364 384.71 298.885 405.65 297.843V300.561Z" fill="#171C51"/>
<path d="M405.65 310.297C382.237 310.913 351.95 298.62 324.91 311.785V309.067C351.953 295.913 382.234 308.207 405.65 307.578V310.297Z" fill="#171C51"/>
<path d="M405.65 320.032C382.237 320.648 351.95 308.358 324.91 321.521V318.803C351.953 305.652 382.234 317.942 405.65 317.314V320.032Z" fill="#171C51"/>
<path d="M405.65 341.552C377.195 341.132 338.603 320.467 308.003 351.519V348.801C338.603 317.752 377.195 338.417 405.65 338.833V341.552Z" fill="#171C51"/>
<path d="M405.65 351.29C373.832 349.772 329.336 323.87 297.524 371.693V368.978C329.345 321.149 373.838 347.057 405.65 348.572V351.29Z" fill="#171C51"/>
<path d="M405.65 361.026C373.832 359.51 329.336 333.605 297.524 381.429V378.714C329.345 330.887 373.838 356.792 405.65 358.308V361.026Z" fill="#171C51"/>
<path d="M405.65 377.812C377.195 377.395 338.603 356.721 308.003 387.779V385.064C338.603 354.011 377.195 374.676 405.65 375.093V377.812Z" fill="#171C51"/>
<path d="M405.65 387.547C373.832 386.032 329.336 360.127 297.524 407.953V405.238C329.345 357.411 373.838 383.316 405.65 384.832V387.547Z" fill="#171C51"/>
<path d="M405.65 397.286C373.832 395.77 329.336 369.865 297.524 417.689V414.979C329.345 367.153 373.838 393.058 405.65 394.573V397.286Z" fill="#171C51"/>
<path d="M405.65 414.086C377.195 413.669 338.603 393.001 308.003 424.054V421.339C338.603 390.283 377.195 410.951 405.65 411.368V414.086Z" fill="#171C51"/>
<path d="M405.65 423.813C373.832 422.298 329.336 396.39 297.524 444.216V441.501C329.345 393.674 373.838 419.579 405.65 421.095V423.813Z" fill="#171C51"/>
<path d="M405.65 433.546C373.832 432.03 329.336 406.125 297.524 453.952V451.236C329.345 403.41 373.838 429.318 405.65 430.83V433.546Z" fill="#171C51"/>
<path d="M291.326 295.449C292.434 312.145 293.014 328.842 293.411 345.538C293.658 353.874 293.709 362.235 293.857 370.583L294.006 395.627L293.866 420.672C293.717 429.008 293.67 437.368 293.42 445.716C293.026 462.413 292.443 479.109 291.335 495.806C290.218 479.109 289.634 462.413 289.249 445.716C289.002 437.38 288.952 429.02 288.803 420.672L288.663 395.627L288.812 370.583C288.958 362.246 289.011 353.886 289.258 345.538C289.634 328.842 290.215 312.145 291.326 295.449Z" fill="#F7CC7F"/>
</svg>
