<svg width="254" height="657" viewBox="0 0 254 657" fill="none" xmlns="http://www.w3.org/2000/svg">
<path d="M140.846 470.333L222.716 656.48H253.268L194.956 470.333H140.846Z" fill="#E3867E"/>
<path d="M71.5464 469.601L94.9996 656.48H128.582L125.074 471.46L71.5464 469.601Z" fill="#E3867E"/>
<path d="M8.28556 33.9481C8.28556 33.9481 3.8069 91.5659 12.4208 127.634C16.4441 144.414 43.3534 188.753 43.3534 188.753L60.7678 157.716C60.7678 157.716 42.8532 135.151 36.8817 106.592C33.0301 88.513 22.8187 33.9481 22.8187 33.9481H8.28556Z" fill="#E3867E"/>
<path d="M244.191 37.8595C244.191 37.8595 248.669 95.4698 240.056 131.545C236.032 148.325 209.116 192.664 209.116 192.664L191.708 157.738C191.708 157.738 209.623 139.077 215.595 110.503C219.401 92.402 229.62 37.8595 229.62 37.8595H244.191Z" fill="#E3867E"/>
<path d="M218.58 17.6235L225.41 23.5353C226.271 23.5134 227.127 23.416 227.971 23.2442C228.241 23.19 228.504 23.1048 228.754 22.9904C229.71 22.5201 230.904 2.41099 230.904 2.41099C230.986 1.57498 231.986 0.328415 232.688 0.283629C233.852 0.208985 234.226 1.56005 234.308 2.40353L233.808 17.2652C233.793 17.4424 233.846 17.6186 233.957 17.7575C234.068 17.8964 234.229 17.9874 234.405 18.0116C234.591 18.0116 234.8 18.0564 235.01 18.0713C235.312 18.0942 235.611 17.9975 235.843 17.8021C236.074 17.6067 236.22 17.3281 236.249 17.0263L237.674 3.31419C237.853 1.6347 238.667 0.223915 239.555 0.0522338C240.556 -0.149305 241.265 1.254 241.123 3.12011L239.578 17.8847C239.564 18.0594 239.616 18.2328 239.724 18.3709C239.832 18.509 239.987 18.6019 240.16 18.6312H240.212C240.391 18.6598 240.574 18.6184 240.723 18.5155C240.871 18.4125 240.975 18.2561 241.011 18.0788L243.698 5.12804C244.049 3.63515 244.997 2.47817 245.9 2.44084C246.803 2.40352 247.468 3.76204 247.132 5.42661C247.132 5.42661 244.765 16.6232 244.146 19.0417C244.116 19.1594 244.134 19.2841 244.196 19.3888C244.257 19.4936 244.357 19.57 244.474 19.6015L244.758 19.6538C244.917 19.6726 245.079 19.6362 245.214 19.5506C245.35 19.4651 245.453 19.3355 245.504 19.1835L249.296 7.72565C249.417 7.36127 249.665 7.05236 249.994 6.85497C250.324 6.65757 250.713 6.58478 251.091 6.6498C251.47 6.71483 251.812 6.91336 252.057 7.20936C252.301 7.50536 252.432 7.87922 252.424 8.26309C252.419 8.3943 252.399 8.5245 252.364 8.65123L247.505 27.0361C246.99 36.9339 246.393 45.8912 236.734 43.6519H236.547C234.188 43.6519 230.844 43.9803 229.829 41.9425L224.753 33.2017H224.694L223.835 31.6416L222.081 28.6559C222.024 28.5252 221.977 28.3905 221.939 28.2528L218.162 21.4602C216.042 19.7657 217.296 17.1159 218.58 17.6235Z" fill="#E3867E"/>
<path d="M33.8959 17.6233L27.066 23.5351C26.2057 23.5133 25.349 23.4159 24.5057 23.244C24.2356 23.1898 23.9726 23.1047 23.722 22.9902C22.7665 22.52 21.5722 2.41085 21.5722 2.41085C21.4901 1.57483 20.4898 0.328272 19.7882 0.283485C18.6237 0.208841 18.2505 1.55991 18.161 2.40339L18.6685 17.265C18.6818 17.4419 18.6275 17.6172 18.5167 17.7557C18.4059 17.8942 18.2468 17.9855 18.0714 18.0115C17.8848 18.0115 17.6758 18.0563 17.4668 18.0712C17.1637 18.0941 16.8637 17.9977 16.6308 17.8024C16.3978 17.6072 16.2505 17.3286 16.2202 17.0262L14.7945 3.31405C14.6228 1.63455 13.8092 0.223772 12.9135 0.0520902C12.0177 -0.119591 11.2116 1.25386 11.3534 3.11996L12.8986 17.8846C12.9122 18.0592 12.86 18.2326 12.7523 18.3708C12.6445 18.5089 12.489 18.6017 12.3163 18.631H12.2641C12.0857 18.6512 11.9061 18.6065 11.758 18.5051C11.61 18.4036 11.5034 18.2522 11.4579 18.0786L8.77819 5.12789C8.43482 3.63501 7.47938 2.47802 6.58365 2.4407C5.68792 2.40338 5.0161 3.7619 5.352 5.42646C5.352 5.42646 7.71822 16.6231 8.33777 19.0416C8.36545 19.1592 8.3468 19.283 8.28565 19.3872C8.22449 19.4914 8.12552 19.5681 8.00933 19.6014L7.72572 19.6536C7.56628 19.6725 7.40516 19.6361 7.26931 19.5505C7.13347 19.4649 7.03112 19.3353 6.97928 19.1834L3.18735 7.7255C3.06634 7.36113 2.8187 7.05222 2.48938 6.85482C2.16007 6.65743 1.7709 6.58464 1.3925 6.64966C1.0141 6.71468 0.671542 6.91321 0.427012 7.20922C0.182482 7.50522 0.0521956 7.87907 0.05976 8.26294C0.0613733 8.39448 0.081488 8.52514 0.119488 8.65108L4.97878 27.0359C5.53861 36.9337 6.14323 45.8836 15.8022 43.6517H15.9888C18.3475 43.6517 21.6991 43.9801 22.7068 41.9424L27.7229 33.2015H27.7751L28.641 31.6415L30.3951 28.6557C30.4523 28.5251 30.4997 28.3903 30.537 28.2526L34.314 21.46C36.3965 19.7656 35.1724 17.1157 33.8959 17.6233Z" fill="#E3867E"/>
<path d="M141.264 200.539L126.238 211.84L111.205 200.539V153.2H141.264V200.539Z" fill="#D67E76"/>
<path d="M36.9713 181.594L60.7679 157.708C85.8334 181.505 92.6036 179.773 105.741 183.087C106.614 183.311 126.335 210.705 126.335 210.705L126.238 342.296L84.3181 332.592C85.8557 270.085 36.9713 181.594 36.9713 181.594Z" fill="#FCE653"/>
<path d="M217.782 181.594L191.731 157.708C166.658 181.505 159.888 179.773 146.758 183.087C145.884 183.311 126.358 210.705 126.358 210.705L126.26 342.296L167.434 327.3C165.896 264.8 217.782 181.594 217.782 181.594Z" fill="#FCE653"/>
<path d="M130.015 210.235H122.461V342.34H130.015V210.235Z" fill="#FCD94E"/>
<path d="M114.556 220.767L126.328 210.855L108.54 177.832L99.0229 183.729L114.556 220.767Z" fill="white"/>
<path d="M137.912 220.767L126.141 210.855L143.929 177.832L153.446 183.729L137.912 220.767Z" fill="white"/>
<path d="M97.4255 85.8407H155.051V130.851C155.051 138.493 152.015 145.821 146.612 151.225C141.208 156.628 133.88 159.664 126.238 159.664C118.597 159.664 111.268 156.628 105.865 151.225C100.461 145.821 97.4255 138.493 97.4255 130.851V85.8407Z" fill="#E3867E"/>
<path d="M154.491 114.131L156.969 109.339C159.138 105.229 160.197 100.624 160.043 95.98C159.888 91.3356 158.525 86.8117 156.088 82.855C153.289 78.3657 149.385 74.6691 144.75 72.1182C140.114 69.5673 134.903 68.2474 129.612 68.2845H122.984C117.434 68.248 111.976 69.7029 107.181 72.4971C102.385 75.2913 98.4283 79.3223 95.7236 84.1687C93.6334 87.9488 92.4937 92.1804 92.4026 96.4989C92.3116 100.817 93.2721 105.093 95.2012 108.958L97.7241 114.131C97.7241 114.131 97.2091 104.763 99.6051 104.741C111.003 104.614 138.42 94.3427 145.071 88.4533C147.198 86.5797 148.572 99.7246 153.834 102.233C156.574 103.509 154.491 114.131 154.491 114.131Z" fill="#2C3959"/>
<path d="M145.17 52.5356C146.855 42.0631 139.731 32.2076 129.259 30.5226C118.786 28.8377 108.931 35.9615 107.246 46.4339C105.561 56.9064 112.685 66.7619 123.157 68.4468C133.629 70.1317 143.485 63.008 145.17 52.5356Z" fill="#2C3959"/>
<path d="M134.77 68.8517H117.706C117.258 68.8517 116.828 68.6742 116.511 68.3581C116.193 68.0419 116.014 67.6128 116.012 67.1647C116.012 66.7154 116.19 66.2844 116.508 65.9666C116.826 65.6488 117.257 65.4703 117.706 65.4703H134.77C135.218 65.4723 135.647 65.6517 135.963 65.9693C136.279 66.2868 136.457 66.7167 136.457 67.1647C136.457 67.6122 136.279 68.0412 135.963 68.3576C135.646 68.674 135.217 68.8517 134.77 68.8517Z" fill="#FCE653"/>
<path d="M165.329 124.835C163.836 130.657 159.611 134.606 155.805 133.65C151.998 132.695 150.094 127.216 151.55 121.394C153.005 115.571 157.268 111.623 161.075 112.578C164.881 113.534 166.785 119.042 165.329 124.835Z" fill="#E3867E"/>
<path d="M87.1545 124.835C88.6474 130.657 92.8723 134.606 96.6716 133.65C100.471 132.695 102.382 127.216 100.934 121.394C99.4857 115.571 95.2161 111.623 91.4092 112.578C87.6024 113.534 85.6616 119.042 87.1545 124.835Z" fill="#E3867E"/>
<path d="M117.206 139.323C117.206 151.363 135.263 151.363 135.263 139.323H117.206Z" fill="white"/>
<path d="M140.898 130.164C138.731 130.164 136.612 129.522 134.81 128.318C133.008 127.114 131.604 125.402 130.775 123.4C129.945 121.398 129.728 119.195 130.151 117.069C130.574 114.943 131.617 112.991 133.15 111.458C134.682 109.926 136.635 108.882 138.76 108.459C140.886 108.037 143.089 108.254 145.092 109.083C147.094 109.912 148.805 111.317 150.009 113.119C151.213 114.921 151.856 117.039 151.856 119.207C151.852 122.112 150.696 124.896 148.642 126.951C146.588 129.005 143.803 130.16 140.898 130.164ZM140.898 109.495C138.979 109.495 137.103 110.065 135.507 111.131C133.911 112.197 132.668 113.713 131.933 115.486C131.199 117.259 131.007 119.21 131.381 121.092C131.755 122.975 132.68 124.704 134.037 126.061C135.394 127.418 137.123 128.342 139.005 128.716C140.887 129.091 142.839 128.899 144.612 128.164C146.385 127.43 147.9 126.186 148.967 124.59C150.033 122.995 150.602 121.118 150.602 119.199C150.602 116.626 149.58 114.157 147.76 112.338C145.94 110.518 143.472 109.495 140.898 109.495Z" fill="#DDDDFF"/>
<path d="M111.548 130.164C109.381 130.164 107.262 129.522 105.46 128.318C103.658 127.114 102.254 125.402 101.425 123.4C100.595 121.398 100.378 119.195 100.801 117.069C101.224 114.943 102.267 112.991 103.8 111.458C105.332 109.926 107.285 108.882 109.411 108.459C111.536 108.037 113.739 108.254 115.742 109.083C117.744 109.912 119.455 111.317 120.659 113.119C121.863 114.921 122.506 117.039 122.506 119.207C122.502 122.112 121.346 124.896 119.292 126.951C117.238 129.005 114.453 130.16 111.548 130.164ZM111.548 109.495C109.629 109.495 107.753 110.065 106.157 111.131C104.561 112.197 103.318 113.713 102.583 115.486C101.849 117.259 101.657 119.21 102.031 121.092C102.405 122.975 103.33 124.704 104.687 126.061C106.044 127.418 107.773 128.342 109.655 128.716C111.537 129.091 113.489 128.899 115.262 128.164C117.035 127.43 118.55 126.186 119.617 124.59C120.683 122.995 121.252 121.118 121.252 119.199C121.252 116.626 120.23 114.157 118.41 112.338C116.59 110.518 114.122 109.495 111.548 109.495Z" fill="#DDDDFF"/>
<path d="M130.59 119.834H121.879C121.713 119.834 121.553 119.768 121.435 119.65C121.318 119.532 121.252 119.373 121.252 119.207C121.252 119.04 121.318 118.881 121.435 118.763C121.553 118.646 121.713 118.58 121.879 118.58H130.59C130.756 118.58 130.916 118.646 131.033 118.763C131.151 118.881 131.217 119.04 131.217 119.207C131.217 119.373 131.151 119.532 131.033 119.65C130.916 119.768 130.756 119.834 130.59 119.834Z" fill="#DDDDFF"/>
<path d="M100.852 117.445C100.715 117.444 100.581 117.4 100.471 117.318L97 114.623C96.919 114.581 96.8482 114.522 96.7925 114.45C96.7368 114.378 96.6975 114.294 96.6774 114.205C96.6574 114.116 96.657 114.024 96.6763 113.934C96.6957 113.845 96.7342 113.761 96.7893 113.688C96.8444 113.616 96.9148 113.556 96.9954 113.513C97.0761 113.47 97.1651 113.446 97.2562 113.441C97.3474 113.436 97.4385 113.451 97.5231 113.485C97.6078 113.519 97.684 113.572 97.7465 113.638L101.217 116.325C101.282 116.376 101.336 116.44 101.376 116.511C101.417 116.583 101.442 116.662 101.452 116.744C101.462 116.826 101.455 116.909 101.433 116.988C101.411 117.067 101.373 117.141 101.322 117.206C101.266 117.278 101.195 117.337 101.113 117.378C101.032 117.419 100.943 117.442 100.852 117.445Z" fill="#DDDDFF"/>
<path d="M151.625 117.445C151.529 117.445 151.434 117.424 151.347 117.382C151.261 117.341 151.185 117.281 151.124 117.206C151.024 117.074 150.98 116.908 151.001 116.743C151.022 116.578 151.106 116.428 151.236 116.325L154.707 113.638C154.839 113.57 154.99 113.55 155.134 113.583C155.279 113.615 155.407 113.698 155.496 113.816C155.586 113.934 155.63 114.08 155.623 114.228C155.615 114.375 155.555 114.516 155.454 114.624L151.983 117.318C151.878 117.394 151.754 117.439 151.625 117.445Z" fill="#DDDDFF"/>
<path d="M222.843 477.476C161.634 514.193 90.8195 514.193 29.6262 477.476C48.0981 427.42 66.5701 377.361 85.042 327.299H167.434C185.901 377.366 204.371 427.425 222.843 477.476Z" fill="white"/>
<path d="M170.629 332.905H81.8398L83.594 322.866H168.002L170.629 332.905Z" fill="#706FC9"/>
<path d="M128.589 226.119C128.589 226.58 128.453 227.03 128.197 227.413C127.941 227.796 127.577 228.095 127.152 228.271C126.726 228.447 126.258 228.493 125.806 228.404C125.354 228.314 124.939 228.092 124.614 227.766C124.288 227.44 124.066 227.025 123.976 226.574C123.887 226.122 123.933 225.654 124.109 225.228C124.285 224.803 124.584 224.439 124.967 224.183C125.35 223.927 125.8 223.791 126.261 223.791C126.878 223.791 127.471 224.036 127.907 224.473C128.344 224.909 128.589 225.502 128.589 226.119Z" fill="white"/>
<path d="M128.589 250.759C128.589 251.22 128.453 251.67 128.197 252.053C127.941 252.436 127.577 252.735 127.152 252.911C126.726 253.087 126.258 253.133 125.806 253.044C125.354 252.954 124.939 252.732 124.614 252.406C124.288 252.081 124.066 251.666 123.976 251.214C123.887 250.762 123.933 250.294 124.109 249.868C124.285 249.443 124.584 249.079 124.967 248.823C125.35 248.567 125.8 248.431 126.261 248.431C126.878 248.431 127.471 248.676 127.907 249.113C128.344 249.549 128.589 250.142 128.589 250.759Z" fill="white"/>
<path d="M128.589 275.399C128.589 275.86 128.453 276.31 128.197 276.693C127.941 277.076 127.577 277.375 127.152 277.551C126.726 277.727 126.258 277.773 125.806 277.684C125.354 277.594 124.939 277.372 124.614 277.046C124.288 276.72 124.066 276.306 123.976 275.854C123.887 275.402 123.933 274.934 124.109 274.508C124.285 274.083 124.584 273.719 124.967 273.463C125.35 273.207 125.8 273.07 126.261 273.07C126.878 273.07 127.471 273.316 127.907 273.753C128.344 274.189 128.589 274.782 128.589 275.399Z" fill="white"/>
<path d="M128.589 300.032C128.591 300.493 128.456 300.944 128.201 301.328C127.946 301.712 127.582 302.012 127.157 302.189C126.732 302.366 126.263 302.414 125.811 302.325C125.359 302.236 124.943 302.014 124.616 301.689C124.29 301.363 124.067 300.949 123.977 300.497C123.886 300.045 123.932 299.576 124.108 299.15C124.284 298.724 124.583 298.36 124.966 298.104C125.349 297.847 125.8 297.711 126.261 297.711C126.877 297.711 127.468 297.955 127.905 298.39C128.341 298.825 128.587 299.416 128.589 300.032Z" fill="white"/>
</svg>
