<svg width="254" height="656" viewBox="0 0 254 656" fill="none" xmlns="http://www.w3.org/2000/svg">
<path d="M140.787 470.3L222.656 656.447H253.208L194.896 470.3H140.787Z" fill="#E3867E"/>
<path d="M71.4868 469.568L94.94 656.447H128.522L125.014 471.427L71.4868 469.568Z" fill="#E3867E"/>
<path d="M8.22587 33.9152C8.22587 33.9152 3.74721 91.533 12.3611 127.601C16.3845 144.381 43.2937 188.72 43.2937 188.72L60.7081 157.683C60.7081 157.683 42.7936 135.118 36.822 106.559C32.9704 88.48 22.7591 33.9152 22.7591 33.9152H8.22587Z" fill="#E3867E"/>
<path d="M244.131 37.8265C244.131 37.8265 248.61 95.4368 239.996 131.512C235.973 148.292 209.056 192.631 209.056 192.631L191.649 157.705C191.649 157.705 209.564 139.044 215.535 110.47C219.342 92.369 229.561 37.8265 229.561 37.8265H244.131Z" fill="#E3867E"/>
<path d="M218.521 17.5905L225.351 23.5023C226.211 23.4805 227.068 23.3831 227.911 23.2112C228.181 23.1571 228.444 23.0719 228.695 22.9574C229.65 22.4872 230.845 2.37806 230.845 2.37806C230.927 1.54205 231.927 0.295487 232.629 0.2507C233.793 0.176056 234.166 1.52712 234.249 2.3706L233.748 17.2322C233.733 17.4095 233.787 17.5857 233.898 17.7246C234.009 17.8635 234.169 17.9544 234.346 17.9787C234.532 17.9787 234.741 18.0235 234.95 18.0384C235.252 18.0613 235.552 17.9646 235.783 17.7691C236.015 17.5737 236.161 17.2952 236.189 16.9934L237.615 3.28126C237.794 1.60177 238.608 0.190987 239.496 0.0193053C240.496 -0.182234 241.205 1.22108 241.064 3.08718L239.518 17.8518C239.505 18.0264 239.557 18.1999 239.665 18.338C239.772 18.4761 239.928 18.5689 240.101 18.5982H240.153C240.332 18.6269 240.514 18.5855 240.663 18.4825C240.812 18.3796 240.915 18.2231 240.952 18.0459L243.639 5.09511C243.99 3.60222 244.938 2.44524 245.841 2.40791C246.744 2.37059 247.408 3.72912 247.072 5.39368C247.072 5.39368 244.706 16.5903 244.087 19.0088C244.057 19.1265 244.075 19.2512 244.136 19.3559C244.198 19.4606 244.298 19.537 244.415 19.5686L244.699 19.6209C244.858 19.6397 245.019 19.6033 245.155 19.5177C245.291 19.4321 245.393 19.3025 245.445 19.1506L249.237 7.69272C249.358 7.32834 249.606 7.01943 249.935 6.82204C250.264 6.62464 250.653 6.55185 251.032 6.61687C251.41 6.6819 251.753 6.88043 251.997 7.17643C252.242 7.47243 252.372 7.84629 252.365 8.23016C252.359 8.36137 252.339 8.49157 252.305 8.6183L247.446 27.0031C246.931 36.901 246.333 45.8583 236.674 43.6189H236.488C234.129 43.6189 230.785 43.9474 229.77 41.9096L224.694 33.1688H224.634L223.776 31.6087L222.022 28.6229C221.965 28.4923 221.917 28.3575 221.88 28.2198L218.103 21.4272C215.983 19.7328 217.237 17.083 218.521 17.5905Z" fill="#E3867E"/>
<path d="M33.8365 17.5904L27.0065 23.5022C26.1462 23.4804 25.2895 23.383 24.4463 23.2111C24.1761 23.1569 23.9131 23.0718 23.6625 22.9573C22.7071 22.487 21.5127 2.37792 21.5127 2.37792C21.4306 1.5419 20.4304 0.295343 19.7287 0.250557C18.5643 0.175913 18.1911 1.52698 18.1015 2.37046L18.6091 17.2321C18.6223 17.4089 18.5681 17.5843 18.4573 17.7227C18.3465 17.8612 18.1874 17.9526 18.0119 17.9785C17.8253 17.9785 17.6163 18.0233 17.4073 18.0383C17.1043 18.0612 16.8042 17.9647 16.5713 17.7695C16.3384 17.5742 16.191 17.2956 16.1607 16.9932L14.7351 3.28112C14.5634 1.60162 13.7497 0.190843 12.854 0.0191618C11.9583 -0.15252 11.1521 1.22093 11.294 3.08703L12.8391 17.8516C12.8528 18.0263 12.8006 18.1997 12.6928 18.3378C12.5851 18.476 12.4296 18.5688 12.2569 18.5981H12.2046C12.0263 18.6183 11.8466 18.5736 11.6986 18.4722C11.5505 18.3707 11.444 18.2193 11.3985 18.0457L8.71874 5.09496C8.37537 3.60208 7.41993 2.44509 6.5242 2.40777C5.62847 2.37045 4.95666 3.72897 5.29255 5.39354C5.29255 5.39354 7.65877 16.5902 8.27832 19.0086C8.306 19.1263 8.28735 19.25 8.2262 19.3543C8.16504 19.4585 8.06608 19.5352 7.94988 19.5685L7.66628 19.6207C7.50683 19.6396 7.34571 19.6031 7.20986 19.5176C7.07402 19.432 6.97167 19.3024 6.91984 19.1504L3.1279 7.69258C3.00689 7.3282 2.75925 7.01929 2.42994 6.82189C2.10062 6.6245 1.71145 6.55171 1.33305 6.61673C0.954656 6.68175 0.612094 6.88029 0.367564 7.17629C0.123034 7.47229 -0.00725261 7.84615 0.000311806 8.23001C0.00192508 8.36156 0.0220397 8.49221 0.0600398 8.61815L4.91933 27.003C5.47916 36.9008 6.08378 45.8506 15.7427 43.6188H15.9293C18.2881 43.6188 21.6396 43.9472 22.6473 41.9094L27.6634 33.1686H27.7157L28.5815 31.6086L30.3357 28.6228C30.3929 28.4921 30.4403 28.3574 30.4775 28.2197L34.2545 21.4271C36.3371 19.7327 35.1129 17.0828 33.8365 17.5904Z" fill="#E3867E"/>
<path d="M141.205 200.506L126.179 211.807L111.146 200.506V153.167H141.205V200.506Z" fill="#D67E76"/>
<path d="M36.9116 181.561L60.7082 157.675C85.7737 181.472 92.5439 179.74 105.681 183.054C106.555 183.278 126.276 210.672 126.276 210.672L126.178 342.263L84.2584 332.559C85.796 270.052 36.9116 181.561 36.9116 181.561Z" fill="#FCE653"/>
<path d="M217.722 181.561L191.671 157.675C166.599 181.472 159.828 179.74 146.698 183.054C145.825 183.278 126.298 210.672 126.298 210.672L126.201 342.263L167.375 327.267C165.837 264.767 217.722 181.561 217.722 181.561Z" fill="#FCE653"/>
<path d="M129.956 210.202H122.402V342.307H129.956V210.202Z" fill="#FCD94E"/>
<path d="M114.497 220.734L126.268 210.822L108.481 177.799L98.9634 183.696L114.497 220.734Z" fill="white"/>
<path d="M137.853 220.734L126.082 210.822L143.869 177.799L153.386 183.696L137.853 220.734Z" fill="white"/>
<path d="M97.3662 85.8078H154.991V130.818C154.991 138.46 151.956 145.788 146.552 151.192C141.149 156.595 133.82 159.631 126.179 159.631C118.537 159.631 111.209 156.595 105.805 151.192C100.402 145.788 97.3662 138.46 97.3662 130.818V85.8078Z" fill="#E3867E"/>
<path d="M154.432 114.098L156.91 109.306C159.078 105.196 160.138 100.591 159.983 95.947C159.829 91.3026 158.466 86.7788 156.029 82.822C153.229 78.3327 149.326 74.6361 144.69 72.0852C140.055 69.5344 134.843 68.2144 129.553 68.2515H122.924C117.374 68.215 111.917 69.6699 107.121 72.4642C102.326 75.2584 98.369 79.2893 95.6643 84.1358C93.5741 87.9158 92.4343 92.1474 92.3433 96.4659C92.2523 100.784 93.2127 105.06 95.1418 108.925L97.6648 114.098C97.6648 114.098 97.1497 104.73 99.5458 104.708C110.944 104.581 138.361 94.3097 145.012 88.4203C147.139 86.5468 148.512 99.6916 153.775 102.2C156.514 103.476 154.432 114.098 154.432 114.098Z" fill="#2C3959"/>
<path d="M145.111 52.5026C146.796 42.0301 139.672 32.1746 129.199 30.4897C118.727 28.8047 108.871 35.9285 107.187 46.4009C105.502 56.8734 112.625 66.7289 123.098 68.4138C133.57 70.0987 143.426 62.975 145.111 52.5026Z" fill="#2C3959"/>
<path d="M134.711 68.8187H117.647C117.199 68.8187 116.769 68.6412 116.452 68.3251C116.134 68.0089 115.955 67.5799 115.953 67.1318C115.953 66.6824 116.131 66.2514 116.449 65.9336C116.767 65.6159 117.198 65.4373 117.647 65.4373H134.711C135.159 65.4393 135.588 65.6187 135.904 65.9363C136.22 66.2538 136.398 66.6837 136.398 67.1318C136.398 67.5792 136.22 68.0082 135.904 68.3246C135.587 68.641 135.158 68.8187 134.711 68.8187Z" fill="#FCE653"/>
<path d="M165.27 124.802C163.777 130.624 159.552 134.573 155.745 133.617C151.938 132.662 150.035 127.183 151.49 121.361C152.946 115.539 157.208 111.59 161.015 112.545C164.822 113.501 166.725 119.009 165.27 124.802Z" fill="#E3867E"/>
<path d="M87.0951 124.802C88.5879 130.624 92.8128 134.573 96.6122 133.617C100.412 132.662 102.322 127.183 100.874 121.361C99.4263 115.539 95.1566 111.59 91.3498 112.545C87.5429 113.501 85.6022 119.009 87.0951 124.802Z" fill="#E3867E"/>
<path d="M117.147 139.29C117.147 151.33 135.203 151.33 135.203 139.29H117.147Z" fill="white"/>
<path d="M140.839 130.131C138.671 130.131 136.553 129.489 134.751 128.285C132.949 127.081 131.544 125.369 130.715 123.367C129.886 121.365 129.669 119.162 130.091 117.036C130.514 114.91 131.558 112.958 133.09 111.425C134.623 109.893 136.575 108.849 138.701 108.427C140.826 108.004 143.03 108.221 145.032 109.05C147.034 109.879 148.746 111.284 149.95 113.086C151.154 114.888 151.796 117.006 151.796 119.174C151.792 122.079 150.637 124.864 148.583 126.918C146.528 128.972 143.744 130.127 140.839 130.131ZM140.839 109.462C138.919 109.462 137.043 110.032 135.448 111.098C133.852 112.164 132.608 113.68 131.874 115.453C131.139 117.226 130.947 119.177 131.321 121.059C131.696 122.942 132.62 124.671 133.977 126.028C135.334 127.385 137.063 128.309 138.946 128.684C140.828 129.058 142.779 128.866 144.552 128.131C146.325 127.397 147.841 126.153 148.907 124.557C149.973 122.962 150.542 121.085 150.542 119.166C150.542 116.593 149.52 114.124 147.7 112.305C145.88 110.485 143.412 109.462 140.839 109.462Z" fill="#DDDDFF"/>
<path d="M111.489 130.131C109.321 130.131 107.203 129.489 105.401 128.285C103.599 127.081 102.194 125.369 101.365 123.367C100.536 121.365 100.319 119.162 100.741 117.036C101.164 114.91 102.208 112.958 103.74 111.425C105.273 109.893 107.225 108.849 109.351 108.427C111.476 108.004 113.68 108.221 115.682 109.05C117.684 109.879 119.396 111.284 120.6 113.086C121.804 114.888 122.446 117.006 122.446 119.174C122.442 122.079 121.287 124.864 119.232 126.918C117.178 128.972 114.394 130.127 111.489 130.131ZM111.489 109.462C109.569 109.462 107.693 110.032 106.097 111.098C104.502 112.164 103.258 113.68 102.523 115.453C101.789 117.226 101.597 119.177 101.971 121.059C102.346 122.942 103.27 124.671 104.627 126.028C105.984 127.385 107.713 128.309 109.595 128.684C111.478 129.058 113.429 128.866 115.202 128.131C116.975 127.397 118.491 126.153 119.557 124.557C120.623 122.962 121.192 121.085 121.192 119.166C121.192 116.593 120.17 114.124 118.35 112.305C116.53 110.485 114.062 109.462 111.489 109.462Z" fill="#DDDDFF"/>
<path d="M130.53 119.801H121.819C121.653 119.801 121.494 119.735 121.376 119.617C121.258 119.499 121.192 119.34 121.192 119.174C121.192 119.007 121.258 118.848 121.376 118.73C121.494 118.613 121.653 118.547 121.819 118.547H130.53C130.697 118.547 130.856 118.613 130.974 118.73C131.091 118.848 131.157 119.007 131.157 119.174C131.157 119.34 131.091 119.499 130.974 119.617C130.856 119.735 130.697 119.801 130.53 119.801Z" fill="#DDDDFF"/>
<path d="M100.792 117.412C100.655 117.411 100.522 117.367 100.411 117.285L96.9405 114.591C96.8595 114.548 96.7886 114.489 96.7329 114.417C96.6772 114.345 96.6379 114.261 96.6179 114.172C96.5978 114.083 96.5974 113.991 96.6168 113.901C96.6361 113.812 96.6746 113.728 96.7298 113.656C96.7849 113.583 96.8552 113.523 96.9359 113.48C97.0165 113.437 97.1055 113.413 97.1966 113.408C97.2878 113.403 97.3789 113.418 97.4636 113.452C97.5483 113.487 97.6245 113.539 97.6869 113.605L101.158 116.292C101.223 116.343 101.277 116.407 101.317 116.478C101.357 116.55 101.383 116.629 101.393 116.711C101.402 116.793 101.396 116.876 101.373 116.955C101.351 117.034 101.313 117.109 101.262 117.173C101.206 117.245 101.135 117.304 101.054 117.345C100.973 117.386 100.883 117.409 100.792 117.412Z" fill="#DDDDFF"/>
<path d="M151.565 117.412C151.469 117.412 151.374 117.391 151.288 117.349C151.201 117.308 151.125 117.248 151.065 117.173C150.965 117.041 150.92 116.875 150.941 116.71C150.962 116.545 151.047 116.395 151.177 116.292L154.648 113.605C154.779 113.537 154.93 113.517 155.075 113.55C155.219 113.582 155.347 113.665 155.437 113.783C155.526 113.901 155.571 114.047 155.563 114.195C155.555 114.342 155.495 114.483 155.394 114.591L151.923 117.285C151.819 117.361 151.694 117.406 151.565 117.412Z" fill="#DDDDFF"/>
<g filter="url(#filter0_d_171_216)">
<path d="M222.783 477.443C161.575 514.16 90.7601 514.16 29.5669 477.443C48.0388 427.387 66.5107 377.328 84.9827 327.266H167.375C185.842 377.333 204.311 427.392 222.783 477.443Z" fill="white"/>
</g>
<path d="M170.569 332.872H81.7803L83.5344 322.833H167.942L170.569 332.872Z" fill="#706FC9"/>
<path d="M128.53 226.086C128.53 226.547 128.393 226.997 128.137 227.38C127.881 227.763 127.518 228.062 127.092 228.238C126.667 228.414 126.198 228.46 125.747 228.371C125.295 228.281 124.88 228.059 124.554 227.733C124.228 227.408 124.007 226.993 123.917 226.541C123.827 226.089 123.873 225.621 124.049 225.195C124.226 224.77 124.524 224.406 124.907 224.15C125.29 223.894 125.74 223.758 126.201 223.758C126.819 223.758 127.411 224.003 127.848 224.44C128.285 224.876 128.53 225.469 128.53 226.086Z" fill="white"/>
<path d="M128.53 250.727C128.53 251.187 128.393 251.637 128.137 252.02C127.881 252.403 127.518 252.702 127.092 252.878C126.667 253.054 126.198 253.101 125.747 253.011C125.295 252.921 124.88 252.699 124.554 252.373C124.228 252.048 124.007 251.633 123.917 251.181C123.827 250.729 123.873 250.261 124.049 249.835C124.226 249.41 124.524 249.046 124.907 248.79C125.29 248.534 125.74 248.398 126.201 248.398C126.819 248.398 127.411 248.643 127.848 249.08C128.285 249.516 128.53 250.109 128.53 250.727Z" fill="white"/>
<path d="M128.53 275.366C128.53 275.827 128.393 276.277 128.137 276.66C127.881 277.043 127.518 277.342 127.092 277.518C126.667 277.694 126.198 277.74 125.747 277.651C125.295 277.561 124.88 277.339 124.554 277.013C124.228 276.688 124.007 276.273 123.917 275.821C123.827 275.369 123.873 274.901 124.049 274.475C124.226 274.05 124.524 273.686 124.907 273.43C125.29 273.174 125.74 273.038 126.201 273.038C126.819 273.038 127.411 273.283 127.848 273.72C128.285 274.156 128.53 274.749 128.53 275.366Z" fill="white"/>
<path d="M128.53 299.999C128.531 300.46 128.396 300.911 128.141 301.295C127.886 301.679 127.523 301.979 127.097 302.156C126.672 302.333 126.203 302.381 125.751 302.292C125.299 302.203 124.883 301.981 124.557 301.656C124.23 301.33 124.008 300.916 123.917 300.464C123.827 300.012 123.873 299.543 124.049 299.117C124.225 298.691 124.523 298.327 124.906 298.071C125.289 297.814 125.74 297.678 126.201 297.678C126.817 297.678 127.409 297.922 127.845 298.357C128.282 298.792 128.528 299.383 128.53 299.999Z" fill="white"/>
<defs>
<filter id="filter0_d_171_216" x="23.5669" y="327.266" width="201.216" height="185.715" filterUnits="userSpaceOnUse" color-interpolation-filters="sRGB">
<feFlood flood-opacity="0" result="BackgroundImageFix"/>
<feColorMatrix in="SourceAlpha" type="matrix" values="0 0 0 0 0 0 0 0 0 0 0 0 0 0 0 0 0 0 127 0" result="hardAlpha"/>
<feOffset dx="-2" dy="4"/>
<feGaussianBlur stdDeviation="2"/>
<feComposite in2="hardAlpha" operator="out"/>
<feColorMatrix type="matrix" values="0 0 0 0 0 0 0 0 0 0 0 0 0 0 0 0 0 0 0.25 0"/>
<feBlend mode="normal" in2="BackgroundImageFix" result="effect1_dropShadow_171_216"/>
<feBlend mode="normal" in="SourceGraphic" in2="effect1_dropShadow_171_216" result="shape"/>
</filter>
</defs>
</svg>
